<svg xmlns="http://www.w3.org/2000/svg" xmlns:xlink="http://www.w3.org/1999/xlink" width="16" height="16" viewBox="0 0 16 16">
    <defs>
        <path id="a" d="M7.535 11.245l-1.298.682a.983.983 0 0 1-1.427-1.036l.248-1.446a1 1 0 0 0-.288-.885L3.72 7.536a.983.983 0 0 1 .545-1.677l1.451-.21a1 1 0 0 0 .753-.547l.65-1.316a.983.983 0 0 1 1.763 0l.649 1.316a1 1 0 0 0 .753.547l1.45.21a.983.983 0 0 1 .546 1.677L11.23 8.56a1 1 0 0 0-.288.885l.248 1.446a.983.983 0 0 1-1.427 1.036l-1.298-.682a1 1 0 0 0-.93 0z"/>
    </defs>
    <g fill="none" fill-rule="evenodd">
        <path fill="" d="M-484-140h800v800h-800z"/>
        <use fill="#FD7169" xlink:href="#a"/>
    </g>
</svg>
