<svg xmlns="http://www.w3.org/2000/svg" xmlns:xlink="http://www.w3.org/1999/xlink" width="10" height="10" viewBox="0 0 10 10">
    <defs>
        <path id="a" d="M4.586 7.42l-.71.373a.655.655 0 0 1-.952-.691l.136-.791a1 1 0 0 0-.287-.885l-.575-.56a.655.655 0 0 1 .363-1.119l.794-.115a1 1 0 0 0 .753-.547l.355-.72a.655.655 0 0 1 1.176 0l.355.72a1 1 0 0 0 .753.547l.794.115a.655.655 0 0 1 .363 1.119l-.574.56a1 1 0 0 0-.288.885l.136.79a.655.655 0 0 1-.951.692l-.71-.374a1 1 0 0 0-.931 0z"/>
    </defs>
    <use fill="#FD7169" fill-rule="evenodd" xlink:href="#a"/>
</svg>
