<svg xmlns="http://www.w3.org/2000/svg" xmlns:xlink="http://www.w3.org/1999/xlink" width="10" height="10" viewBox="0 0 10 10">
    <defs>
        <path id="a" d="M5.698 6.802l.71.373a.155.155 0 0 0 .226-.163l-.136-.791a1.5 1.5 0 0 1 .432-1.328l.574-.56a.155.155 0 0 0-.086-.265l-.794-.116a1.5 1.5 0 0 1-1.13-.82l-.355-.72a.155.155 0 0 0-.278 0l-.356.72a1.5 1.5 0 0 1-1.129.82l-.794.116a.155.155 0 0 0-.086.265l.574.56a1.5 1.5 0 0 1 .432 1.328l-.136.79a.155.155 0 0 0 .226.164l.71-.373a1.5 1.5 0 0 1 1.396 0zm-1.64 1.259A1.155 1.155 0 0 1 2.38 6.843l.135-.791a.5.5 0 0 0-.144-.443l-.574-.56a1.155 1.155 0 0 1 .64-1.97l.794-.116a.5.5 0 0 0 .377-.274l.355-.72a1.155 1.155 0 0 1 2.072 0l.355.72a.5.5 0 0 0 .377.274l.794.115a1.155 1.155 0 0 1 .64 1.971l-.574.56a.5.5 0 0 0-.144.443l.135.79a1.155 1.155 0 0 1-1.676 1.219l-.71-.374a.5.5 0 0 0-.466 0l-.71.374z"/>
    </defs>
    <g fill="none" fill-rule="evenodd">
        <path fill="#E5E5EC" d="M-177-143h800v800h-800z"/>
        <use fill="#FD7169" xlink:href="#a"/>
    </g>
</svg>
