<svg xmlns="http://www.w3.org/2000/svg" xmlns:xlink="http://www.w3.org/1999/xlink" width="16" height="16" viewBox="0 0 16 16">
    <defs>
        <path id="a" d="M9.956 9.614a2 2 0 0 1 .576-1.77l1.025-1-1.417-.206a2 2 0 0 1-1.506-1.094L8 4.26l-.634 1.284A2 2 0 0 1 5.86 6.638l-1.417.206 1.025 1a2 2 0 0 1 .576 1.77L5.8 11.026l1.268-.666a2 2 0 0 1 1.862 0l1.268.666-.243-1.412zm-3.72 2.313a.983.983 0 0 1-1.426-1.036l.248-1.446a1 1 0 0 0-.288-.885L3.72 7.536a.983.983 0 0 1 .545-1.677l1.451-.21a1 1 0 0 0 .753-.547l.65-1.316a.983.983 0 0 1 1.763 0l.649 1.316a1 1 0 0 0 .753.547l1.45.21a.983.983 0 0 1 .546 1.677L11.23 8.56a1 1 0 0 0-.288.885l.248 1.446a.983.983 0 0 1-1.427 1.036l-1.298-.682a1 1 0 0 0-.93 0l-1.298.682z"/>
    </defs>
    <g fill="none" fill-rule="evenodd">
        <path fill="#E5E5EC" d="M-510-140h800v800h-800z"/>
        <use fill="#FD7169" xlink:href="#a"/>
    </g>
</svg>
