<svg xmlns="http://www.w3.org/2000/svg" width="24" height="24" viewBox="0 0 24 24">
    <g fill="none" fill-rule="evenodd">
        <path fill="" d="M-484-268h800v800h-800z"/>
        <path fill="#FFF" d="M7.512 4.098A2.01 2.01 0 0 1 8.132 4h10.25a2 2 0 0 1 1.789 2.894l-3 6A2 2 0 0 1 15.382 14h-6.5a2.01 2.01 0 0 1-.298-.022L7.4 16H17a1 1 0 0 1 0 2H6a1 1 0 0 1-.832-1.555l1.855-3.71a2.001 2.001 0 0 1-.125-.487l-.75-6a1.997 1.997 0 0 1 .027-.659L4.585 4H3a1 1 0 1 1 0-2h2a1 1 0 0 1 .707.293l1.805 1.805zM8.132 6l.75 6h6.5l3-6H8.132zM7 23a2 2 0 1 1 0-4 2 2 0 0 1 0 4zm9 0a2 2 0 1 1 0-4 2 2 0 0 1 0 4z"/>
    </g>
</svg>
