<svg xmlns="http://www.w3.org/2000/svg" width="24" height="24" viewBox="0 0 24 24">
    <g fill="none" fill-rule="evenodd">
        <path fill="" d="M-484-224h800v800h-800z"/>
        <path fill="#FFF" d="M12.797 7.84a.898.898 0 0 1-1.23 0l-1.405-1.294a2.9 2.9 0 0 0-4.443.625 4.735 4.735 0 0 0 .847 5.955l5.616 5.142 5.615-5.142a4.735 4.735 0 0 0 .847-5.955 2.9 2.9 0 0 0-4.442-.625L12.797 7.84zm-.002 12.3a.898.898 0 0 1-1.227 0l-6.214-5.69a6.53 6.53 0 0 1-1.168-8.213 4.696 4.696 0 0 1 7.192-1.011l.804.74.804-.74a4.696 4.696 0 0 1 7.19 1.011 6.53 6.53 0 0 1-1.166 8.213l-6.215 5.69z"/>
    </g>
</svg>
