<svg xmlns="http://www.w3.org/2000/svg" xmlns:xlink="http://www.w3.org/1999/xlink" width="24" height="24" viewBox="0 0 24 24">
    <defs>
        <path id="a" d="M9.236 19.506l1.62-1.618c.378.075.76.112 1.144.112 2.781 0 5.397-1.951 7.84-6a22.784 22.784 0 0 0-1.24-1.857l1.426-1.426a25.122 25.122 0 0 1 1.84 2.784l.288.499-.287.499C19.02 17.444 15.734 20 12 20c-.95 0-1.871-.165-2.764-.494zM4.418 15.84c-.79-.953-1.552-2.068-2.285-3.34L1.846 12l.287-.499C4.98 6.556 8.266 4 12 4c1.202 0 2.358.265 3.468.79l-1.535 1.535A5.933 5.933 0 0 0 12 6c-2.781 0-5.397 1.951-7.84 6 .55.912 1.11 1.718 1.678 2.42l-1.42 1.42zm3.59-3.59a4 4 0 0 1 4.242-4.242L8.008 12.25zm7.906.58l-3.085 3.085a4.005 4.005 0 0 0 3.085-3.085zm3.51-7.754a1 1 0 0 1 0 1.415L5.99 19.925a1 1 0 1 1-1.415-1.415L18.01 5.075a1 1 0 0 1 1.415 0z"/>
    </defs>
    <use fill="#000" fill-opacity=".5" fill-rule="nonzero" xlink:href="#a"/>
</svg>
