<svg xmlns="http://www.w3.org/2000/svg" xmlns:xlink="http://www.w3.org/1999/xlink" width="24" height="24" viewBox="0 0 24 24">
    <defs>
        <path id="a" d="M12 20c-3.734 0-7.02-2.556-9.867-7.501L1.846 12l.287-.499C4.98 6.556 8.266 4 12 4c3.734 0 7.02 2.556 9.867 7.501l.287.499-.287.499C19.02 17.444 15.734 20 12 20zm0-2c2.781 0 5.397-1.951 7.84-6C17.396 7.951 14.78 6 12 6c-2.781 0-5.397 1.951-7.84 6 2.443 4.049 5.059 6 7.84 6zm0-2a4 4 0 1 1 0-8 4 4 0 0 1 0 8zm0-2a2 2 0 1 0 0-4 2 2 0 0 0 0 4z"/>
    </defs>
    <use fill="#000" fill-opacity=".5" fill-rule="nonzero" xlink:href="#a"/>
</svg>
