<svg xmlns="http://www.w3.org/2000/svg" width="24" height="24" viewBox="0 0 24 24">
    <g fill="none" fill-rule="nonzero">
        <path fill="#FFF" d="M14.795 18.14a.898.898 0 0 1-1.227 0l-6.214-5.69a6.53 6.53 0 0 1-1.168-8.213 4.696 4.696 0 0 1 7.192-1.011l.804.74.804-.74a4.696 4.696 0 0 1 7.19 1.011 6.53 6.53 0 0 1-1.166 8.213l-6.215 5.69z"/>
        <path fill="#FD7169" d="M12.795 20.14a.898.898 0 0 1-1.227 0l-6.214-5.69a6.53 6.53 0 0 1-1.168-8.213 4.696 4.696 0 0 1 7.192-1.011l.804.74.804-.74a4.696 4.696 0 0 1 7.19 1.011 6.53 6.53 0 0 1-1.166 8.213l-6.215 5.69z"/>
    </g>
</svg>
