<svg xmlns="http://www.w3.org/2000/svg" width="24" height="24" viewBox="0 0 24 24">
    <path fill="#FFF" fill-rule="evenodd" d="M8.04 10.438a4 4 0 0 1 7.92 0H20c.552 0 1 .475 1 1.062 0 .587-.448 1.063-1 1.063h-4.317a4.001 4.001 0 0 1-7.366 0H4c-.552 0-1-.476-1-1.063s.448-1.063 1-1.063h4.04zm8.117 7.45A4.002 4.002 0 0 1 24 19a4 4 0 0 1-7.876.992A.951.951 0 0 1 16 20H4c-.552 0-1-.476-1-1.063 0-.586.448-1.062 1-1.062h12a.95.95 0 0 1 .157.013zM7.874 3H20c.552 0 1 .476 1 1.063 0 .586-.448 1.062-1 1.062H7.84A4.002 4.002 0 0 1 0 4a4 4 0 0 1 7.874-1zM4 6a2 2 0 1 0 0-4 2 2 0 0 0 0 4zm16 15a2 2 0 1 0 0-4 2 2 0 0 0 0 4zm-8-8a2 2 0 1 0 0-4 2 2 0 0 0 0 4z"/>
</svg>
