<svg xmlns="http://www.w3.org/2000/svg" width="66" height="38" viewBox="0 0 66 38">
    <g fill="none" fill-rule="evenodd">
        <path fill="#1F2832" fill-rule="nonzero" d="M1.375 0C.615 0 0 .608 0 1.357v35.286C0 37.393.616 38 1.375 38h63.25c.76 0 1.375-.608 1.375-1.357V1.357C66 .607 65.384 0 64.625 0H1.375z"/>
        <path fill="#FFF" d="M32.74 16.987c-.023 2.08 1.802 3.238 3.177 3.93 1.413.707 1.887 1.161 1.882 1.794-.01.969-1.128 1.396-2.172 1.413-1.823.03-2.882-.508-3.726-.912l-.656 3.164c.846.4 2.411.75 4.034.767 3.811 0 6.303-1.938 6.316-4.94.016-3.81-5.118-4.021-5.083-5.724.012-.517.49-1.068 1.539-1.21.519-.068 1.953-.123 3.576.647l.638-3.062c-.874-.326-1.996-.64-3.394-.64-3.586 0-6.11 1.963-6.13 4.773zm15.654-4.509c-.697 0-1.284.417-1.545 1.06l-5.443 13.379h3.809l.756-2.157h4.654l.438 2.157h3.356l-2.93-14.439h-3.095zm.531 3.902l1.1 5.421h-3.01l1.91-5.421zm-20.8-3.902l-3 14.439h3.628l3-14.439h-3.627zm-5.367 0l-3.776 9.827-1.527-8.355c-.179-.933-.887-1.472-1.673-1.472H9.609l-.086.419c1.267.284 2.707.741 3.58 1.229.533.298.685.559.861 1.268l2.893 11.523h3.834l5.878-14.439h-3.81z"/>
    </g>
</svg>
