<svg xmlns="http://www.w3.org/2000/svg" width="66" height="38" viewBox="0 0 66 38">
    <g fill="none" fill-rule="evenodd">
        <path fill="#1F2832" fill-rule="nonzero" d="M1.375 0C.615 0 0 .608 0 1.357v35.286C0 37.393.616 38 1.375 38h63.25c.76 0 1.375-.608 1.375-1.357V1.357C66 .607 65.384 0 64.625 0H1.375z"/>
        <path fill="#0092C7" d="M33.42 28.673a12.49 12.49 0 0 0 4.022-9.216c0-3.656-1.556-6.947-4.022-9.239A11.99 11.99 0 0 0 25.233 7C18.483 7 13 12.583 13 19.457c0 6.875 5.482 12.434 12.233 12.434 3.16 0 6.033-1.22 8.187-3.218"/>
        <path fill="#0092C7" d="M33.42 28.673a12.49 12.49 0 0 0 4.022-9.216c0-3.656-1.556-6.947-4.022-9.239v18.455"/>
        <path fill="#D82332" d="M41.632 7c-3.16 0-6.033 1.219-8.212 3.218-.43.414-.837.853-1.22 1.316h2.465c.335.415.647.878.934 1.317h-4.333a17.86 17.86 0 0 0-.719 1.316h5.746c.192.44.383.878.527 1.317h-6.775c-.144.439-.264.877-.36 1.34h7.494c.167.83.263 1.731.263 2.633 0 1.366-.215 2.707-.622 3.95h-6.775c.144.439.311.878.502 1.316h5.746c-.215.44-.43.902-.694 1.317h-4.333c.287.463.598.902.933 1.316h2.466c-.383.463-.79.902-1.245 1.317 2.179 1.999 5.052 3.218 8.212 3.218 6.75 0 12.209-5.559 12.209-12.434C53.84 12.583 48.382 7 41.63 7"/>
        <path fill="#D82332" d="M52.285 26.476c0-.273.218-.485.5-.485.28 0 .5.212.5.485a.512.512 0 0 1-.5.515.512.512 0 0 1-.5-.515zm.5.394a.407.407 0 0 0 .406-.394c0-.212-.188-.364-.406-.364-.22 0-.407.152-.407.364s.188.394.407.394zm-.063-.182h-.125v-.424h.188c.062 0 .093 0 .125.03.03 0 .062.06.062.091 0 .06-.031.091-.062.121l.062.182h-.125l-.062-.151h-.063v.151zm0-.242h.125s.031-.03.031-.06l-.03-.031c-.032-.03-.063-.03-.063-.03h-.063v.12z"/>
        <path fill="#0C2D5B" d="M23.318 22.92h-1.532l.91-4.852-2.083 4.851H19.32l-.263-4.827-1.006 4.827h-1.388l1.173-6.314h2.418l.024 3.9 1.675-3.9h2.562l-1.197 6.314M40.315 22.846c-.431.122-.742.17-1.101.17-.766 0-1.197-.39-1.197-1.12 0-.147.024-.318.048-.464l.095-.512.072-.39.694-3.925h1.509l-.216 1.17h.766l-.191 1.244h-.79l-.407 2.145c0 .098-.024.17-.024.22 0 .268.167.365.526.365.168 0 .312 0 .407-.049l-.191 1.146M34.282 19.409c0 .634.36 1.097 1.15 1.414.646.268.741.341.741.585 0 .317-.287.463-.885.463-.48 0-.886-.073-1.389-.22l-.215 1.195h.071l.288.049c.096.024.215.049.407.049.359.024.646.048.838.048 1.627 0 2.37-.536 2.37-1.706 0-.707-.312-1.122-1.078-1.439-.646-.243-.718-.316-.718-.56 0-.268.264-.415.742-.415a9.9 9.9 0 0 1 1.125.074l.216-1.17a9.153 9.153 0 0 0-1.365-.123c-1.723 0-2.322.805-2.298 1.756M28.25 22.92h-1.27l.025-.537c-.383.414-.91.61-1.605.61-.813 0-1.388-.561-1.388-1.39 0-1.243.982-1.975 2.681-1.975.168 0 .383 0 .623.025.048-.171.048-.244.048-.317 0-.342-.264-.488-.982-.488-.43 0-.91.073-1.245.146l-.215.074-.144.024.216-1.146c.766-.22 1.268-.293 1.819-.293 1.317 0 2.011.537 2.011 1.512 0 .268-.024.439-.144 1.024l-.31 1.804-.049.341-.048.268-.024.17v.147zm-1.03-2.292c-.168-.025-.24-.025-.359-.025-.862 0-1.293.268-1.293.78 0 .317.216.512.55.512.623 0 1.078-.511 1.102-1.267zM33.229 22.797a5.466 5.466 0 0 1-1.556.22c-1.7 0-2.586-.805-2.586-2.316 0-1.755 1.125-3.048 2.658-3.048 1.268 0 2.058.732 2.058 1.853 0 .39-.048.756-.191 1.268h-3.016c-.024.097-.024.122-.024.17 0 .586.454.903 1.34.903.55 0 1.03-.098 1.58-.342l-.263 1.292zm-.718-3.047v-.268c0-.414-.264-.658-.719-.658-.478 0-.838.316-.981.926h1.7zM49.46 20.579c-.216 1.706-1.389 2.462-2.945 2.462-1.724 0-2.418-1.048-2.418-2.364 0-1.805 1.173-3.048 2.993-3.048 1.58 0 2.418 1.024 2.418 2.316 0 .317 0 .341-.048.634zm-1.532-.61c0-.536-.216-1.048-.838-1.048-.766 0-1.269.95-1.269 1.756 0 .707.335 1.17.886 1.17.335 0 1.03-.463 1.173-1.268.024-.17.048-.39.048-.61z"/>
        <path fill="#FFFFFE" d="M49.627 22.234c0-.273.243-.485.516-.485.272 0 .484.212.484.485 0 .272-.212.515-.484.515a.53.53 0 0 1-.516-.515zm.516.394c.212 0 .363-.182.363-.394a.35.35 0 0 0-.363-.364c-.212 0-.394.152-.394.364s.182.394.394.394zm-.061-.182h-.121v-.424h.182c.06 0 .09 0 .12.03s.061.06.061.09c0 .061-.03.122-.09.122l.09.182h-.12l-.061-.152h-.061v.152zm0-.243h.121v-.09h-.121v.09zM23.701 22.554h-1.532l.91-4.852-2.083 4.852h-1.389l-.24-4.827-.909 4.827H17.07l1.173-6.315h2.394l.12 3.9 1.675-3.9h2.466L23.7 22.554M40.698 22.48c-.431.122-.742.171-1.101.171-.766 0-1.197-.39-1.197-1.121 0-.146.024-.293.048-.464l.095-.511.072-.39.694-3.926h1.508l-.215 1.17h.79l-.215 1.244h-.79l-.383 2.145c-.024.098-.048.171-.048.22 0 .268.167.39.526.39.168 0 .312-.024.407-.049l-.191 1.121"/>
        <path fill="#0C2D5B" d="M44.6 18.897l-.024-.171.287-.804c-.072 0-.095 0-.12-.025-.071 0-.12-.024-.12-.024h-.143c-.502 0-.862.22-1.34.829l.167-.927h-1.58l-.933 5.144h1.508c.215-1.194.311-1.853.43-2.413.192-.927.863-1.341 1.365-1.244.048 0 .096 0 .168.025l.096.049.24-.44"/>
        <path fill="#FFFFFE" d="M45.127 17.459c-.12-.05-.144-.05-.168-.05-.072-.024-.12-.024-.12-.048h-.167c-.503 0-.862.22-1.317.829l.144-.78H42.11l-.933 5.144h1.532c.55-3.145.766-3.706 1.508-3.706.048 0 .12.024.192.024l.167.05.55-1.463M34.665 19.043c0 .634.36 1.097 1.173 1.414.623.268.718.341.718.585 0 .317-.287.463-.885.463-.455 0-.886-.073-1.389-.22l-.191 1.195h.072l.263.074c.095 0 .24.024.407.024.359.049.646.049.862.049 1.604 0 2.37-.537 2.37-1.707 0-.707-.312-1.121-1.102-1.438-.646-.244-.718-.317-.718-.56 0-.269.263-.415.766-.415.288 0 .718.024 1.102.073l.215-1.17c-.407-.073-1.006-.098-1.34-.098-1.724 0-2.323.78-2.323 1.731M28.632 22.554h-1.244l.024-.537c-.383.415-.91.61-1.604.61-.814 0-1.389-.561-1.389-1.39 0-1.243.981-1.975 2.681-1.975.168 0 .383 0 .623.025.048-.17.048-.244.048-.317 0-.341-.264-.463-.982-.463-.43 0-.91.048-1.245.122l-.215.073-.144.024.215-1.146c.767-.195 1.245-.268 1.82-.268 1.317 0 1.987.512 1.987 1.487 0 .269-.024.463-.12 1.024l-.31 1.829-.049.317-.048.268-.024.17-.024.147zm-1.1-2.292c-.168-.024-.24-.024-.336-.024-.862 0-1.293.268-1.293.78 0 .317.192.536.527.536.622 0 1.077-.536 1.101-1.292zM33.636 22.432c-.527.146-1.03.219-1.556.219-1.7 0-2.586-.804-2.586-2.316 0-1.755 1.125-3.047 2.658-3.047 1.244 0 2.034.731 2.034 1.852 0 .39-.047.756-.167 1.268h-3.04v.17c0 .586.43.903 1.316.903a3.98 3.98 0 0 0 1.58-.317l-.24 1.268zm-.814-3.048v-.268c0-.414-.263-.658-.718-.658-.48 0-.814.341-.958.926h1.676zM49.867 20.213c-.24 1.707-1.413 2.463-2.969 2.463-1.7 0-2.394-1.049-2.394-2.365 0-1.804 1.173-3.048 2.993-3.048 1.58 0 2.418 1.024 2.418 2.316 0 .317 0 .342-.048.634zm-1.58-.658c0-.536-.216-1.024-.838-1.024-.766 0-1.245.926-1.245 1.755 0 .683.335 1.146.862 1.146.335 0 1.053-.463 1.173-1.243.048-.195.048-.415.048-.634z"/>
    </g>
</svg>
