<svg xmlns="http://www.w3.org/2000/svg" width="66" height="38" viewBox="0 0 66 38">
    <g fill="none" fill-rule="nonzero">
        <path fill="#1F2832" d="M1.375 0C.615 0 0 .608 0 1.357v35.286C0 37.393.616 38 1.375 38h63.25c.76 0 1.375-.608 1.375-1.357V1.357C66 .607 65.384 0 64.625 0H1.375z"/>
        <path fill="#FFF" d="M8 10a2 2 0 1 1 0-4 2 2 0 0 1 0 4zm50 22a2 2 0 1 1 0-4 2 2 0 0 1 0 4zM25 11.875c0-.983.687-1.824 1.654-1.875h8.192C38.164 10 41 12.765 41 16.25s-2.836 6.25-6.154 6.25h-3.692v1.25h4.308c1.02 0 1.846.84 1.846 1.875 0 1.036-.827 1.875-1.846 1.875h-4.308v.625c.014.99-.87 1.875-1.846 1.875-.976 0-1.86-.884-1.846-1.875V27.5h-.616c-1.02 0-1.846-.84-1.846-1.875 0-1.036.827-1.875 1.846-1.875h.616V22.5h-.616c-.975.014-1.846-.625-1.846-1.875 0-.99.87-1.889 1.846-1.875h.616v-5h-.616c-.967.051-1.846-.625-1.846-1.875zm6.154 1.875v5h3.692c1.246 0 2.462-1.137 2.462-2.5s-1.216-2.5-2.462-2.5h-3.692z"/>
    </g>
</svg>
