<svg xmlns="http://www.w3.org/2000/svg" width="66" height="38" viewBox="0 0 66 38">
    <g fill="none" fill-rule="nonzero">
        <path fill="#1F2832" d="M1.375 0C.615 0 0 .608 0 1.357v35.286C0 37.393.616 38 1.375 38h63.25c.76 0 1.375-.608 1.375-1.357V1.357C66 .607 65.384 0 64.625 0H1.375z"/>
        <path fill="#FFF" d="M21.556 32.174v-1.74c0-.668-.415-1.103-1.126-1.103-.356 0-.74.116-1.007.493-.208-.319-.504-.493-.948-.493-.296 0-.593.087-.83.406v-.348h-.622v2.785h.622v-1.537c0-.494.267-.726.682-.726.414 0 .622.261.622.726v1.537h.622v-1.537c0-.494.296-.726.681-.726.415 0 .622.261.622.726v1.537h.682zm9.212-2.785h-1.007v-.841h-.622v.841h-.563v.551h.563v1.277c0 .638.266 1.015.977 1.015.267 0 .563-.087.77-.203l-.177-.522a.99.99 0 0 1-.533.145c-.297 0-.415-.174-.415-.464V29.94h1.007v-.551zm5.273-.058a.838.838 0 0 0-.74.406v-.348h-.623v2.785h.622v-1.566c0-.465.208-.726.593-.726.118 0 .266.03.385.058l.177-.58c-.118-.029-.296-.029-.414-.029zm-7.969.29c-.296-.203-.71-.29-1.155-.29-.71 0-1.185.348-1.185.9 0 .464.356.725.978.812l.296.029c.326.058.504.145.504.29 0 .203-.237.348-.652.348-.415 0-.74-.145-.948-.29l-.296.464c.326.232.77.348 1.214.348.83 0 1.304-.377 1.304-.899 0-.493-.385-.754-.978-.841l-.296-.03c-.267-.028-.474-.086-.474-.26 0-.204.207-.32.533-.32.356 0 .711.145.889.232l.266-.493zm16.53-.29a.838.838 0 0 0-.741.406v-.348h-.622v2.785h.622v-1.566c0-.465.207-.726.592-.726.119 0 .267.03.385.058l.178-.58c-.118-.029-.296-.029-.415-.029zm-7.94 1.45c0 .842.593 1.451 1.512 1.451.414 0 .71-.087 1.007-.319l-.297-.493a1.213 1.213 0 0 1-.74.261c-.504 0-.86-.348-.86-.9 0-.522.356-.87.86-.899.266 0 .503.087.74.261l.297-.493c-.297-.232-.593-.319-1.007-.319-.919 0-1.511.61-1.511 1.45zm5.747 0V29.39h-.622v.348c-.207-.26-.503-.406-.888-.406-.8 0-1.422.61-1.422 1.45 0 .842.622 1.451 1.422 1.451.414 0 .71-.145.888-.406v.348h.622v-1.392zm-2.28 0c0-.493.325-.899.859-.899.503 0 .859.377.859.9 0 .493-.356.9-.86.9-.533-.03-.858-.407-.858-.9zm-7.436-1.45c-.829 0-1.421.58-1.421 1.45 0 .871.592 1.451 1.451 1.451.415 0 .83-.116 1.155-.377l-.296-.435c-.237.174-.533.29-.83.29-.384 0-.77-.174-.858-.667h2.103v-.232c.03-.9-.504-1.48-1.304-1.48zm0 .522c.386 0 .652.232.711.668h-1.48c.059-.378.325-.668.77-.668zm15.434.929v-2.496h-.623v1.451c-.207-.26-.503-.406-.888-.406-.8 0-1.422.61-1.422 1.45 0 .842.622 1.451 1.422 1.451.414 0 .71-.145.888-.406v.348h.623v-1.392zm-2.281 0c0-.494.325-.9.859-.9.503 0 .859.377.859.9 0 .493-.356.9-.86.9-.533-.03-.858-.407-.858-.9zm-20.795 0v-1.393h-.622v.348c-.207-.26-.504-.406-.889-.406-.8 0-1.422.61-1.422 1.45 0 .842.622 1.451 1.422 1.451.415 0 .711-.145.889-.406v.348h.622v-1.392zm-2.31 0c0-.494.325-.9.858-.9.504 0 .86.377.86.9 0 .493-.356.9-.86.9-.533-.03-.859-.407-.859-.9z"/>
        <path fill="#FF5F00" d="M27.865 8.237h9.331V24.66h-9.33z"/>
        <path fill="#EB001B" d="M28.457 16.448c0-3.336 1.6-6.296 4.059-8.21a10.74 10.74 0 0 0-6.576-2.235c-5.895 0-10.664 4.672-10.664 10.445 0 5.774 4.769 10.446 10.664 10.446 2.488 0 4.769-.842 6.576-2.234a10.354 10.354 0 0 1-4.059-8.212z"/>
        <path fill="#F79E1B" d="M49.785 16.448c0 5.774-4.769 10.446-10.664 10.446a10.74 10.74 0 0 1-6.576-2.234c2.489-1.915 4.059-4.875 4.059-8.212 0-3.336-1.6-6.296-4.059-8.21a10.74 10.74 0 0 1 6.576-2.235c5.895 0 10.664 4.7 10.664 10.445z"/>
    </g>
</svg>
