<svg xmlns="http://www.w3.org/2000/svg" width="42" height="42" viewBox="0 0 42 42">
    <g fill="none" fill-rule="evenodd">
        <path fill="#FD7169" d="M0 21C0 9.402 9.402 0 21 0s21 9.402 21 21-9.402 21-21 21S0 32.598 0 21z"/>
        <path fill="#FFF" d="M21 11c-2.715 0-3.056.012-4.122.06-1.065.05-1.792.218-2.428.465a4.897 4.897 0 0 0-1.771 1.153 4.909 4.909 0 0 0-1.154 1.771c-.248.636-.417 1.363-.465 2.427C11.013 17.943 11 18.284 11 21c0 2.716.012 3.056.06 4.122.05 1.065.218 1.792.465 2.427a4.9 4.9 0 0 0 1.153 1.772 4.897 4.897 0 0 0 1.771 1.154c.636.247 1.363.416 2.428.465 1.066.048 1.407.06 4.123.06s3.056-.012 4.122-.06c1.065-.05 1.792-.218 2.429-.465a4.893 4.893 0 0 0 1.77-1.154 4.909 4.909 0 0 0 1.154-1.771c.246-.636.415-1.363.465-2.428.047-1.066.06-1.406.06-4.122s-.013-3.057-.06-4.123c-.05-1.065-.22-1.792-.465-2.427a4.908 4.908 0 0 0-1.154-1.772 4.887 4.887 0 0 0-1.771-1.153c-.638-.247-1.365-.416-2.43-.465-1.066-.048-1.405-.06-4.122-.06H21zm-.896 1.802H21c2.67 0 2.986.01 4.04.058.976.044 1.505.207 1.857.344.467.181.8.398 1.15.748.35.35.566.683.748 1.15.137.352.3.881.344 1.856.048 1.054.059 1.371.059 4.04 0 2.668-.01 2.985-.059 4.04-.044.974-.207 1.503-.344 1.856a3.092 3.092 0 0 1-.748 1.148c-.35.35-.683.567-1.15.748-.352.138-.881.3-1.856.345-1.054.048-1.371.058-4.041.058-2.67 0-2.987-.01-4.04-.058-.976-.045-1.505-.208-1.858-.345a3.097 3.097 0 0 1-1.15-.748 3.1 3.1 0 0 1-.748-1.15c-.137-.351-.3-.88-.345-1.856-.047-1.054-.057-1.37-.057-4.04 0-2.671.01-2.986.057-4.04.045-.975.208-1.505.345-1.857.181-.467.398-.8.748-1.15.35-.35.683-.567 1.15-.748.353-.138.882-.3 1.857-.345.923-.042 1.28-.054 3.144-.056v.002zm6.235 1.66a1.2 1.2 0 1 0 0 2.401 1.2 1.2 0 0 0 0-2.4zM21 15.866a5.136 5.136 0 1 0 0 10.27 5.136 5.136 0 0 0 0-10.27zm0 1.802a3.333 3.333 0 1 1 0 6.666 3.333 3.333 0 0 1 0-6.666z"/>
    </g>
</svg>
