<svg xmlns="http://www.w3.org/2000/svg" width="42" height="42" viewBox="0 0 42 42">
    <g fill="none" fill-rule="evenodd">
        <path fill="#FD7169" d="M0 21C0 9.402 9.402 0 21 0s21 9.402 21 21-9.402 21-21 21S0 32.598 0 21z"/>
        <path fill="#FFF" d="M22.079 27.95s.397-.042.6-.251c.186-.192.18-.553.18-.553s-.025-1.686.794-1.935c.807-.245 1.843 1.63 2.943 2.352.83.545 1.461.426 1.461.426l2.939-.04s1.536-.09.808-1.245c-.06-.095-.425-.855-2.184-2.417-1.844-1.634-1.596-1.37.623-4.198 1.351-1.722 1.891-2.774 1.722-3.223-.16-.43-1.154-.316-1.154-.316l-3.308.02s-.245-.032-.427.071c-.178.102-.293.34-.293.34s-.523 1.332-1.221 2.466c-1.473 2.39-2.062 2.517-2.303 2.37-.56-.347-.42-1.392-.42-2.133 0-2.318.368-3.284-.716-3.534-.36-.084-.624-.138-1.544-.147-1.18-.012-2.179.004-2.745.268-.377.176-.667.569-.49.592.219.027.714.127.976.469.34.441.327 1.43.327 1.43s.195 2.73-.455 3.068c-.445.232-1.056-.242-2.37-2.412a19.787 19.787 0 0 1-1.18-2.34s-.098-.229-.274-.352c-.212-.15-.508-.196-.508-.196l-3.143.02s-.472.012-.645.209c-.154.174-.012.535-.012.535s2.46 5.505 5.248 8.28c2.555 2.543 5.456 2.376 5.456 2.376h1.315z"/>
    </g>
</svg>
