<svg xmlns="http://www.w3.org/2000/svg" width="50" height="50" viewBox="0 0 50 50">
    <g fill="none" fill-rule="evenodd">
        <rect width="40" height="2" x="5" y="45" fill="#D8D8D8" rx="1"/>
        <path fill="#FAC2BA" d="M31.143 4.512l4 2.785A2 2 0 0 1 36 8.94v7.856h-8V6.154a2 2 0 0 1 3.143-1.642z"/>
        <path fill="#3F404B" d="M28 15.268V6.154a2 2 0 0 1 3.143-1.642l4 2.785A2 2 0 0 1 36 8.94v6.329A2 2 0 0 1 37 17v7.268A2 2 0 0 1 38 26v18a2 2 0 0 1-2 2h-8a2 2 0 0 1-2-2V26a2 2 0 0 1 1-1.732V17a2 2 0 0 1 1-1.732zM28 26v18h2v-9a1 1 0 0 1 2 0v9h4V26h-8zm1-2h6v-7h-6v7zm2 6a1 1 0 1 1 0 2 1 1 0 0 1 0-2zm-21-4v18h8V26h-8zm0-2h8a2 2 0 0 1 2 2v18a2 2 0 0 1-2 2h-8a2 2 0 0 1-2-2V26a2 2 0 0 1 2-2zm24-9.205V8.94l-4-2.785v8.641h4z"/>
    </g>
</svg>
