<svg xmlns="http://www.w3.org/2000/svg" width="50" height="50" viewBox="0 0 50 50">
    <g fill="none" fill-rule="evenodd">
        <rect width="40" height="2" x="5" y="45" fill="#D8D8D8" rx="1"/>
        <path fill="#FAC2BA" d="M23 10h6a2 2 0 0 1 2 2v5H21v-5a2 2 0 0 1 2-2zm15.904 9.023c-2.147-2.148-2.464-5.314-.707-7.071 1.758-1.758 4.924-1.441 7.071.707 2.148 2.148 2.465 5.314.708 7.07-1.758 1.758-4.924 1.442-7.072-.706zM8.474 28h33.053c.31 1.283.473 2.622.473 4 0 6.494-3.641 12.137-8.993 15H16.993C11.64 44.137 8 38.494 8 32c0-1.378.164-2.717.473-4z"/>
        <path fill="#3F404B" fill-rule="nonzero" d="M29 7.043V10a2 2 0 0 1 2 2v4.09c6.428 2.424 11 8.633 11 15.91 0 6.494-3.641 12.137-8.993 15H16.993C11.64 44.137 8 38.494 8 32c0-8.011 5.541-14.728 13-16.527V12a2 2 0 0 1 2-2V6a2 2 0 0 1 2-2h2a2 2 0 0 1 1.744 1.02 13.492 13.492 0 0 1 10.596 6.151c1.785-.79 4.19-.25 5.928 1.488 2.148 2.148 2.465 5.314.708 7.07-1.758 1.758-4.924 1.442-7.072-.706-1.958-1.959-2.394-4.764-1.123-6.575A11.495 11.495 0 0 0 29 7.043zM13.82 22H22a1 1 0 0 1 0 2h-9.69a14.921 14.921 0 0 0-1.77 4h28.92C37.71 21.658 31.9 17 25 17a14.963 14.963 0 0 0-11.18 5zm26.048 8H10.132A15.138 15.138 0 0 0 10 32c0 5.43 2.91 10.345 7.51 13h14.98A14.993 14.993 0 0 0 40 32c0-.678-.045-1.346-.132-2zM29 12h-6v3h6v-3zm-4-2h2V6h-2v4zm1 12a1 1 0 1 1 0 2 1 1 0 0 1 0-2zm14.319-4.391c1.422 1.422 3.336 1.613 4.242.707.907-.907.716-2.82-.707-4.243-1.422-1.422-3.336-1.614-4.242-.707-.907.907-.716 2.82.707 4.243zM18 9a1 1 0 1 1 0-2 1 1 0 0 1 0 2zm-4-3a1 1 0 1 1 0-2 1 1 0 0 1 0 2zm0 6a1 1 0 1 1 0-2 1 1 0 0 1 0 2zm-4 3a1 1 0 1 1 0-2 1 1 0 0 1 0 2zm0-6a1 1 0 1 1 0-2 1 1 0 0 1 0 2zm0-6a1 1 0 1 1 0-2 1 1 0 0 1 0 2z"/>
    </g>
</svg>
