<svg xmlns="http://www.w3.org/2000/svg" width="50" height="50" viewBox="0 0 50 50">
    <g fill="none" fill-rule="evenodd">
        <rect width="40" height="2" x="5" y="45" fill="#D8D8D8" rx="1"/>
        <path fill="#FAC2BA" d="M19 3h12a2 2 0 0 1 2 2v7H17V5a2 2 0 0 1 2-2zm2 15h8a2 2 0 0 1 2 2v14a2 2 0 0 1-2 2h-8a2 2 0 0 1-2-2V20a2 2 0 0 1 2-2z"/>
        <path fill="#3F404B" fill-rule="nonzero" d="M15.13 39H24a1 1 0 0 1 0 2h-9c-.063 0-.124-.006-.183-.017L14.34 44h21.318l-1.288-8.162a53.633 53.633 0 0 1 .16-17.686L35.615 12H14.384l1.086 6.152a53.633 53.633 0 0 1 .16 17.686L15.13 39zM31 6V5H19v1h12zm-14 4V5a2 2 0 0 1 2-2h12a2 2 0 0 1 2 2v5h2.616a2 2 0 0 1 1.97 2.348L36.5 18.5a51.633 51.633 0 0 0-.154 17.026l1.289 8.162A2 2 0 0 1 35.659 46H14.341a2 2 0 0 1-1.976-2.312l1.289-8.162A51.633 51.633 0 0 0 13.5 18.5l-1.086-6.152A2 2 0 0 1 14.384 10H17zm4 10v14h8V20h-8zm0-2h8a2 2 0 0 1 2 2v14a2 2 0 0 1-2 2h-8a2 2 0 0 1-2-2V20a2 2 0 0 1 2-2zm-2-8h12V8H19v2zm9 29a1 1 0 1 1 0 2 1 1 0 0 1 0-2z"/>
    </g>
</svg>
