<svg xmlns="http://www.w3.org/2000/svg" width="80" height="80" viewBox="0 0 80 80">
    <g fill="none" fill-rule="evenodd">
        <circle cx="40" cy="40" r="40" fill="#FFF"/>
        <path fill="#FF918B" d="M60.58 50.711c-.172-.036-.342-.076-.515-.105-.552-.512-.989-1.226-1.328-2.08-.851-2.141-1.101-5.184-1.077-8.206.048-5.443 1.004-10.835 1.004-10.835v-.001c0-.755-.019-1.477-.047-2.185-.008-.224-.023-.436-.034-.655a40.15 40.15 0 0 0-.096-1.405c-.021-.24-.044-.473-.067-.709a31.362 31.362 0 0 0-.147-1.233 40.313 40.313 0 0 0-.091-.67c-.063-.41-.131-.812-.202-1.203-.037-.179-.066-.364-.102-.543a35.71 35.71 0 0 0-.355-1.551c-.008-.018-.01-.036-.015-.059a26.151 26.151 0 0 0-.438-1.494 55.835 55.835 0 0 1-.147-.417 17.355 17.355 0 0 0-.349-.965 18.234 18.234 0 0 0-.551-1.28 11.446 11.446 0 0 0-.2-.431 24.12 24.12 0 0 0-.41-.776l-.194-.351a21.893 21.893 0 0 0-.578-.931c-.019-.028-.036-.06-.059-.091-.22-.326-.447-.636-.674-.927a6.122 6.122 0 0 0-.206-.247 13.434 13.434 0 0 0-.5-.589 34.278 34.278 0 0 1-.262-.277 11.36 11.36 0 0 0-.475-.481 10.233 10.233 0 0 0-.772-.691c-.083-.069-.166-.14-.247-.204-.213-.169-.43-.331-.649-.482a1.256 1.256 0 0 0-.104-.08c-.253-.177-.51-.339-.766-.492-.073-.043-.149-.083-.221-.124a9.838 9.838 0 0 0-.542-.296c-.097-.051-.188-.095-.282-.142-.166-.079-.324-.157-.487-.228l-.283-.122c-.166-.07-.326-.131-.493-.193a10.344 10.344 0 0 1-.253-.097 13.506 13.506 0 0 0-.57-.188c-.053-.015-.108-.035-.157-.049-.238-.07-.467-.132-.694-.189a4.765 4.765 0 0 0-.219-.046 15.386 15.386 0 0 0-.458-.102 7.122 7.122 0 0 0-.258-.047c-.131-.025-.264-.046-.388-.066a5.334 5.334 0 0 0-.25-.035 8.049 8.049 0 0 0-.365-.044c-.079-.008-.155-.019-.229-.026-.125-.011-.247-.023-.366-.031-.063-.003-.124-.01-.179-.014-.167-.01-.32-.014-.471-.021l-.197-.001-.225-.002a10.436 10.436 0 0 0-.941.036c-.075.005-.135.011-.178.015-.017.002-.037.003-.048.007a.514.514 0 0 0-.065.005c-.214-.014-.427-.022-.638-.03-.209.006-.42.017-.637.028l-.066-.006a.562.562 0 0 1-.045-.005l-.178-.017-.07-.002a9.953 9.953 0 0 0-.87-.033h-.234l-.186.001c-.15.004-.311.012-.476.021-.05.003-.105.008-.157.013a7.43 7.43 0 0 0-.389.034c-.07.005-.142.014-.21.022-.127.014-.255.031-.388.048-.078.01-.153.022-.232.034-.139.021-.276.044-.421.071l-.227.04-.507.109c-.058.014-.113.028-.176.04-.234.055-.472.118-.71.192-.039.009-.078.024-.117.035-.199.063-.403.129-.608.201-.078.027-.157.058-.237.089-.172.064-.342.132-.515.203a5.595 5.595 0 0 0-.262.114c-.172.072-.342.157-.516.24a7.717 7.717 0 0 0-.258.128c-.188.098-.383.205-.575.317-.063.039-.128.07-.193.11-.258.154-.516.318-.776.497l-.071.053c-.229.161-.458.331-.684.512-.078.06-.153.125-.231.187a15.35 15.35 0 0 0-.522.453c-.087.081-.172.164-.256.243a13.51 13.51 0 0 0-.491.495l-.247.263c-.174.193-.346.397-.515.605-.064.079-.126.15-.189.232a15.16 15.16 0 0 0-.682.932c-.017.024-.031.052-.046.074-.202.302-.395.619-.593.95-.062.108-.121.226-.185.339a15.117 15.117 0 0 0-.615 1.214c-.124.27-.246.547-.369.832-.061.15-.124.298-.183.452-.123.315-.24.643-.354.979-.044.136-.096.265-.138.405a24.423 24.423 0 0 0-.457 1.562 28.48 28.48 0 0 0-.354 1.547c-.034.176-.065.36-.1.536-.072.391-.143.795-.205 1.208-.034.217-.062.442-.092.665-.055.402-.104.813-.143 1.237a37.184 37.184 0 0 0-.165 2.11c-.012.221-.028.434-.036.661-.029.706-.047 1.43-.047 2.182v.002s.954 5.394 1.003 10.834c.029 3.024-.224 6.066-1.075 8.209-.341.854-.775 1.568-1.329 2.075-.178.034-.345.07-.511.11-.907.21-3.862.46-6.849 3.643-1.208 1.289-2.419 3.073-3.503 5.515 6.438 10.039 17.686 16.711 30.472 16.711 12.782 0 24.028-6.669 30.465-16.705-1.085-2.449-2.299-4.234-3.509-5.523-2.987-3.185-5.946-3.437-6.848-3.647zm-5.413-18.669c-.239 1.346-.765 2.458-1.321 2.932-.225.188-.455.275-.671.239a.649.649 0 0 1-.338-.176c-1.235 3.835-3.591 7.656-6.565 9.957-1.737 1.337-3.683 2.154-5.742 2.154-2.07 0-4.027-.829-5.771-2.182-2.959-2.301-5.306-6.109-6.533-9.93a.685.685 0 0 1-.336.176c-.251.045-.522-.083-.778-.339-.518-.521-.993-1.572-1.219-2.832-.297-1.66-.063-3.124.523-3.543a.617.617 0 0 1 .259-.11c.208-.036.427.043.641.215l.003-.046c.074-.721 1.033-8.799 7.083-8.239l18.491 9.52 1.503-1.446c.05.008.104.026.149.046.654.31.939 1.848.622 3.604z"/>
    </g>
</svg>
