<svg xmlns="http://www.w3.org/2000/svg" xmlns:xlink="http://www.w3.org/1999/xlink" width="240" height="240" viewBox="0 0 240 240">
    <defs>
        <path id="a" d="M26.146 22.113c-2.18 2.15-3.167 4.583-2.216 5.716.73.87 2.413.749 4.286-.158 3.325 8.446 7.422 10.404 10.004 13.23 1.277 1.398 7.647 7.942 10.539 20.995.965 4.356 1.186 12.58.664 24.67-12.258-3.431-21.46-10.236-27.607-20.415-9.221-15.269-6.99-17.964-6.99-22.905 0-4.94-9.073-11.058-12.25-21.777C.457 14.322-.034 7.166 1.103 0c13.401 7.977 21.75 15.348 25.043 22.113z"/>
        <path id="c" d="M18.553 10.674a4.6 4.6 0 0 0 4.48 5.666c.884 0 1.71-.248 2.412-.679 9.44 7.3 15.094 13.96 16.963 19.977 4.694 15.119 11.112 17.93 14.995 22.202 1.725 1.898 10.333 10.783 14.24 28.509 1.304 5.916 1.603 17.083.897 33.5-19.633-4.658-33.604-13.899-41.91-27.722C18.17 71.393 20.072 64.55 20.072 57.84c0-6.402-11.671-11.727-16.82-24.48C-.181 24.86-.881 13.74 1.152 0c6.573 3.689 12.373 7.247 17.401 10.674z"/>
        <path id="e" d="M68.743 14.192c-15.947 4.123-35.582 6.486-45.364 6.486C13.314 20.843 5.521 15.014 0 3.191L109.353 0c-6.348 2.052-13.621 4.646-21.82 7.782a2.276 2.276 0 0 0-.083-.099c-.554-.615-1.336-.815-1.747-.445-.304.273-.319.783-.08 1.278a740.865 740.865 0 0 0-4.695 1.831 87.241 87.241 0 0 1-5.958 2.08 14.2 14.2 0 0 0-.429-.5c-2.402-2.667-5.347-3.931-6.578-2.822-.967.87-.59 2.945.78 5.087z"/>
        <path id="g" d="M0 10.123C4.045 4.13 12.15.958 24.317.602 30.316.426 37.55 4.32 46.945 5.474c3.368.414 6.6-3.298 12.797-2.905 3.765.239 11.106 1.96 22.022 5.162-4.245 3.318-10.46 6.593-18.643 9.823-3.245 1.281-11.371-3.06-15.5-2.069-11.491 2.759-23.26 7.743-30.14 7.743C9.955 23.35 4.128 18.983 0 10.123z"/>
        <path id="i" d="M2.155 9.716L73.29.356a2 2 0 0 1 2.23 2.335l-9.226 51.66A2 2 0 0 1 64.326 56H11.612a2 2 0 0 1-1.954-1.575l-9.196-42.3a2 2 0 0 1 1.693-2.409z"/>
        <path id="j" d="M71.862 23.173l-5.568 31.179A2 2 0 0 1 64.326 56H11.612a2 2 0 0 1-1.954-1.575l-.591-2.719c2.118.195 4.264.294 6.433.294 23.196 0 43.738-11.363 56.362-28.827z"/>
        <path id="l" d="M0 0h54l-7 23H7z"/>
    </defs>
    <g fill="none" fill-rule="evenodd">
        <path d="M0 0h240v240H0z"/>
        <g transform="translate(66.143 77.791)">
            <mask id="b" fill="#fff">
                <use xlink:href="#a"/>
            </mask>
            <use fill="#FBACA7" xlink:href="#a"/>
            <path fill="#FF8486" fill-opacity=".4" fill-rule="nonzero" d="M2.212 24.408c2.467 3.932 6.635 5.898 12.503 5.898s12.444-4.088 19.729-12.263l4.598 15.5c5.025 4.813 3.492 7.22-4.598 7.22-12.136 0-23.851-3.822-23.851-2.373 0 .966-1.83 3.792-5.49 8.48l-2.89-22.462zM10.593 55.348c11.72 3.076 20.697 5.385 26.932 6.926 9.352 2.311 11.585 4.298 12.173-2.772.392-4.714 1.866-8.924 4.423-12.633l2.026 26.027c2.486 2.6.336 3.901-6.45 3.901-10.177 0-10.803 4.936-12.263 7.352-.974 1.61-9.921-7.99-26.841-28.8z" mask="url(#b)"/>
            <path stroke="#F8837F" d="M17.72 58.55l22.54 6.726 2.106-19.855" mask="url(#b)"/>
            <path stroke="#F8837F" d="M13.682 49.895l21.847 5.453 1.996-16.958M-6.818 15.085l20.995 5.453 2.847-16.959" mask="url(#b)"/>
        </g>
        <path stroke="#F8837F" stroke-linecap="round" d="M65 75.5c25.911 39.54 40.725 64.37 44.442 74.489 3.716 10.119 9.602 24.623 17.658 43.511h1.9"/>
        <g transform="scale(-1 1) rotate(18 -122.283 -485.078)">
            <mask id="d" fill="#fff">
                <use xlink:href="#c"/>
            </mask>
            <use fill="#FBACA7" xlink:href="#c"/>
            <path fill="#FF8486" fill-opacity=".4" fill-rule="nonzero" d="M.46 30.455c3.333 5.339 8.964 8.008 16.894 8.008 7.929 0 16.815-5.55 26.658-16.652l6.214 21.048c6.79 6.537 4.718 9.805-6.214 9.805-16.399 0-32.228-5.19-32.228-3.222 0 1.311-2.473 5.15-7.418 11.514L.46 30.455zM20.072 77.458c15.836 4.177 27.967 7.312 36.391 9.404 12.637 3.14 15.655 5.837 16.449-3.764.53-6.4 2.522-12.119 5.977-17.155l2.737 35.344c3.36 3.532.455 5.298-8.714 5.298-13.753 0-14.599 6.703-16.572 9.984-.88 1.461-18.203.023-28.7-12.107-3.477-4.018-6-13.019-7.568-27.004z" mask="url(#d)"/>
            <path stroke="#F8837F" d="M18.427 78.87l41.732 12.07 2.846-26.964" mask="url(#d)"/>
            <path stroke="#F8837F" d="M12.97 67.116l40.797 10.342 2.696-23.03M-3.455 22.78l24.785 7.78 7.432-23.403" mask="url(#d)"/>
        </g>
        <path stroke="#F8837F" stroke-linecap="round" d="M155.09 13.097C136.025 75.1 126.228 113.374 125.7 127.917c-.53 14.543-2.003 35.62-4.42 63.231l-2.43.79"/>
        <g transform="scale(-1 1) rotate(-20 393.513 371.348)">
            <mask id="f" fill="#fff">
                <use xlink:href="#e"/>
            </mask>
            <use fill="#FBACA7" xlink:href="#e"/>
            <path stroke="#F8837F" stroke-linecap="round" d="M15.777 3.592l20.52 17.49M42.266-1l20.52 17.49M68.754-1l20.52 17.49" mask="url(#f)"/>
            <path fill="#FF8486" fill-opacity=".4" fill-rule="nonzero" d="M89.274 13.975c-1.528 0-8.383-3.502-38.568 0C30.582 16.309 13.68 11.317 0-1L-3.467.132-5.483 16.49s20.88 15.025 28.298 15.025c7.418 0 26.071-3.47 27.89-4.982 1.82-1.511 40.097-12.558 38.569-12.558z" mask="url(#f)"/>
        </g>
        <path stroke="#F8837F" stroke-linecap="round" d="M.473 119.708c63.229 25.277 96.757 38.613 100.585 40.006 5.741 2.09 28.196 19.372 18.267 46.656"/>
        <g transform="translate(147.196 142.5)">
            <mask id="h" fill="#fff">
                <use xlink:href="#g"/>
            </mask>
            <use fill="#FBACA7" xlink:href="#g"/>
            <path fill="#FF8486" fill-opacity=".4" fill-rule="nonzero" d="M43.57 6.452c-2.502 1.374-2.91 3.797-1.224 7.268 2.528 5.206 10.387 8.444 10.387 9.078 0 .633 5.907 1.557 7.009.633.734-.616 1.58-2.117 2.54-4.505-4.5-3.68-6.751-6.264-6.751-7.754 0-1.49-.333-3.501-.998-6.034L43.57 6.452z" mask="url(#h)"/>
            <path stroke="#F8837F" stroke-linecap="round" d="M23.329 0L11.797 10.324 27.14 23.43M46.945.567L34.338 9.06l12.607 10.93M59.742 1.697l-7.01 7.022L66.75 19.99" mask="url(#h)"/>
            <path fill="#FF8486" fill-opacity=".4" fill-rule="nonzero" d="M66.75 18.105c-1.142 0-6.267-2.624-28.837 0C22.866 19.855 10.229 16.113 0 6.882l-2.592.849L-4.1 19.99S11.512 31.25 17.06 31.25c5.546 0 19.493-2.602 20.854-3.734 1.36-1.133 29.98-9.412 28.837-9.412z" mask="url(#h)"/>
        </g>
        <path stroke="#F8837F" stroke-linecap="round" d="M229 150.53c-51.049 1.615-78.101 2.423-81.156 2.423-4.583 0-24.843 6.5-24.844 28.547"/>
        <g transform="translate(89 171)">
            <use fill="#FD9292" fill-rule="nonzero" xlink:href="#i"/>
            <mask id="k" fill="#fff">
                <use xlink:href="#j"/>
            </mask>
            <use fill="#F57A73" fill-opacity=".3" xlink:href="#j"/>
            <path fill="#F57A73" fill-opacity=".3" d="M0 10L76 0v6L0 16z" mask="url(#k)"/>
            <path fill="#F57A73" fill-opacity=".6" d="M0 18L76 8V6L0 16zM0 56h76v-2H0z" mask="url(#k)"/>
            <circle cx="7.5" cy="50.5" r="2.5" fill="#FFF" fill-opacity=".2" mask="url(#k)"/>
            <circle cx="12.5" cy="44.5" r="1.5" fill="#FFF" fill-opacity=".2" mask="url(#k)"/>
        </g>
        <g transform="translate(55 193)">
            <path fill="#FDD1CF" d="M27.1 12.949a3.523 3.523 0 0 1-1.06.021A4.978 4.978 0 0 1 23 14a4.978 4.978 0 0 1-3.057-1.043A6.978 6.978 0 0 1 15 15a6.99 6.99 0 0 1-2.27-.376A5.002 5.002 0 0 1 3 13a5 5 0 0 1 5-5 7 7 0 0 1 13.011-3.589A4.983 4.983 0 0 1 23 4c.897 0 1.74.236 2.468.65A3.484 3.484 0 0 1 27.5 4c.663 0 1.283.184 1.812.505a6.503 6.503 0 0 1 12.526.549c.216-.036.437-.054.662-.054 2.194 0 5.022.745 5.42 3.055.188-.036.382-.055.58-.055 1.933 0 3.5 1.79 3.5 4s-2.567 5-4.5 5c-1.439 0-2.674-.992-3.213-2.41A4.104 4.104 0 0 1 42.5 15c-1.749 0-3.265-1.108-4.01-2.727a6.462 6.462 0 0 1-2.582.714c.06.327.092.666.092 1.013 0 2.761-2.015 5-4.5 5S27 16.761 27 14c0-.36.034-.712.1-1.051z"/>
            <circle cx="13" cy="11" r="4" fill="#FBACA7"/>
            <circle cx="10" cy="13" r="4" fill="#FBACA7"/>
            <circle cx="18" cy="14" r="4" fill="#FBACA7"/>
            <circle cx="20" cy="10" r="2" fill="#FBACA7"/>
            <circle cx="25" cy="11" r="5" fill="#FBACA7"/>
            <circle cx="31" cy="12" r="4" fill="#FBACA7"/>
            <circle cx="34.5" cy="9.5" r="4.5" fill="#FBACA7"/>
            <circle cx="39" cy="13" r="4" fill="#FBACA7"/>
            <g transform="translate(0 12)">
                <mask id="m" fill="#fff">
                    <use xlink:href="#l"/>
                </mask>
                <use fill="#FFEBEB" xlink:href="#l"/>
                <path fill="#FD9292" fill-opacity=".1" fill-rule="nonzero" d="M50.336 0h4.128l-7 23h-41l-1.58-5.194A36.932 36.932 0 0 0 17.463 20c14.306 0 26.715-8.119 32.872-20z" mask="url(#m)"/>
                <path fill="#F57A73" fill-opacity=".3" d="M0 22v-1h51.79v1z" mask="url(#m)"/>
            </g>
            <circle cx="23" cy="14" r="3" fill="#FBACA7"/>
            <circle cx="23" cy="11" r="4" fill="#FBACA7"/>
            <circle cx="12" cy="11" r="3" fill="#FBACA7"/>
            <circle cx="23" cy="17" r="2" fill="#FBACA7"/>
            <circle cx="12" cy="14" r="2" fill="#FBACA7"/>
            <circle cx="23" cy="21" r="1" fill="#FBACA7"/>
            <circle cx="12" cy="18" r="1" fill="#FBACA7"/>
        </g>
        <rect width="66" height="2" x="74" y="234" fill="#FFEBEB" rx="1"/>
        <rect width="5.5" height="2" x="146" y="234" fill="#FFEBEB" rx="1"/>
        <circle cx="108.5" cy="185.5" r="2.5" fill="#FFF" fill-opacity=".2"/>
        <circle cx="144" cy="119" r="2" fill="#FFF" fill-opacity=".2"/>
        <circle cx="123.5" cy="92.5" r="1.5" fill="#FFF" fill-opacity=".2"/>
        <circle cx="88.5" cy="165.5" r="3.5" fill="#FFF" fill-opacity=".2"/>
        <circle cx="74" cy="157" r="1" fill="#FFF" fill-opacity=".2"/>
        <circle cx="156" cy="174" r="1" fill="#FFF" fill-opacity=".2"/>
        <circle cx="151" cy="177" r="2" fill="#FFF" fill-opacity=".2"/>
        <circle cx="150" cy="46" r="1" fill="#FFF" fill-opacity=".2"/>
        <path fill="#FFEBEB" d="M47 227h140a1 1 0 1 1 0 2H47a1 1 0 1 1 0-2zm147.526 0h14a1 1 0 1 1 0 2h-14a1 1 0 1 1 0-2zM9 227h28a1 1 0 1 1 0 2H9a1 1 0 1 1 0-2zm207 0h12a1 1 0 1 1 0 2h-12a1 1 0 1 1 0-2z"/>
    </g>
</svg>
