<svg xmlns="http://www.w3.org/2000/svg" xmlns:xlink="http://www.w3.org/1999/xlink" width="180" height="37" viewBox="0 0 180 37">
    <defs>
        <path id="a" d="M10.726 22.356c-2.153 0-4.037-.447-5.652-1.34-1.615-.893-2.865-2.171-3.748-3.835C.442 15.516 0 13.568 0 11.336c0-2.212.442-4.15 1.326-5.815.883-1.664 2.133-2.942 3.748-3.835C6.689.793 8.573.346 10.726.346c2.58 0 4.846.68 6.796 2.04.345.244.594.507.746.791.153.285.229.65.229 1.096 0 .63-.178 1.162-.533 1.599-.356.436-.787.654-1.295.654-.305 0-.58-.046-.823-.137a4.943 4.943 0 0 1-.853-.441c-.711-.427-1.382-.73-2.012-.914a6.966 6.966 0 0 0-1.95-.274c-1.808 0-3.154.543-4.037 1.629-.884 1.086-1.326 2.735-1.326 4.947 0 2.232.442 3.891 1.326 4.977.883 1.086 2.23 1.629 4.037 1.629.61 0 1.199-.097 1.768-.29.568-.192 1.3-.492 2.194-.898.426-.223.741-.375.944-.456a1.97 1.97 0 0 1 .732-.122c.508 0 .94.218 1.295.654.355.437.533.97.533 1.599 0 .426-.076.786-.229 1.08-.152.295-.4.563-.746.807-1.95 1.36-4.216 2.04-6.796 2.04zM31.001 6.8c.69-.06 1.239.096 1.645.472.407.375.61.928.61 1.659 0 .812-.188 1.4-.564 1.766-.376.365-1.051.598-2.026.7l-.915.091c-1.015.122-1.742.441-2.178.959-.437.517-.656 1.223-.656 2.116v5.205c0 .832-.259 1.456-.777 1.872-.518.416-1.163.624-1.935.624s-1.417-.208-1.935-.624c-.518-.416-.777-1.04-.777-1.872V9.235c0-.77.26-1.37.777-1.796.518-.426 1.143-.639 1.874-.639.752 0 1.356.203 1.813.609.458.406.686.974.686 1.705v.578c.325-.893.858-1.583 1.6-2.07.741-.487 1.518-.751 2.331-.792l.427-.03zm16.26 10.472a1.4 1.4 0 0 1 1.142.548c.294.365.442.842.442 1.43 0 .812-.396 1.431-1.189 1.857-.69.345-1.508.635-2.453.868-.944.233-1.813.35-2.605.35-1.666 0-3.119-.314-4.358-.944-1.24-.629-2.194-1.532-2.864-2.709-.67-1.177-1.006-2.557-1.006-4.14 0-1.502.32-2.846.96-4.033a6.907 6.907 0 0 1 2.682-2.77c1.147-.66 2.443-.99 3.885-.99 1.402 0 2.63.305 3.687.913 1.057.61 1.874 1.472 2.453 2.588.58 1.116.869 2.425.869 3.927 0 .467-.107.827-.32 1.08-.214.254-.523.381-.93.381h-8.045c.143.974.458 1.674.945 2.1.488.427 1.209.64 2.164.64a5.53 5.53 0 0 0 1.401-.168 13.75 13.75 0 0 0 1.433-.472c.304-.121.604-.228.899-.32.294-.09.563-.136.807-.136zm-5.212-6.88c-.71 0-1.28.228-1.706.685-.427.457-.68 1.121-.762 1.994h4.784c-.122-1.786-.894-2.679-2.316-2.679zM59.234 6.74c2.316 0 4.028.553 5.135 1.66 1.107 1.105 1.66 2.785 1.66 5.037v6.362c0 .772-.228 1.375-.685 1.812-.457.436-1.092.654-1.904.654-.711 0-1.295-.203-1.753-.609-.457-.405-.706-.953-.746-1.643a3.37 3.37 0 0 1-1.432 1.704c-.67.406-1.473.61-2.408.61-1.036 0-1.97-.209-2.803-.625-.833-.416-1.488-.994-1.966-1.735-.477-.74-.716-1.578-.716-2.511 0-1.076.28-1.934.838-2.573.559-.64 1.448-1.1 2.667-1.385 1.218-.284 2.864-.426 4.936-.426h.823v-.365c0-.71-.163-1.223-.488-1.538-.325-.314-.873-.471-1.645-.471-.833 0-2.052.284-3.657.852-.467.162-.863.243-1.188.243-.508 0-.915-.182-1.22-.548-.304-.365-.456-.842-.456-1.43 0-.447.091-.812.274-1.096.183-.284.477-.538.884-.761.71-.366 1.604-.66 2.681-.883a15.585 15.585 0 0 1 3.17-.335zm-.853 11.964c.731 0 1.33-.26 1.798-.777.467-.517.7-1.182.7-1.994v-.365h-.487c-1.3 0-2.224.117-2.773.35-.548.234-.822.624-.822 1.172 0 .467.147.853.441 1.157.295.304.676.457 1.143.457zM89 6.739c1.645 0 2.915.492 3.809 1.477.894.984 1.34 2.643 1.34 4.977v6.575c0 .832-.258 1.456-.777 1.872-.518.416-1.163.624-1.935.624s-1.417-.208-1.935-.624c-.518-.416-.777-1.04-.777-1.872v-6.697c0-.812-.142-1.38-.426-1.705-.285-.324-.701-.487-1.25-.487-.71 0-1.28.254-1.706.761-.427.508-.64 1.208-.64 2.1v6.028c0 .832-.254 1.456-.762 1.872-.508.416-1.158.624-1.95.624-.772 0-1.417-.208-1.935-.624-.518-.416-.777-1.04-.777-1.872v-6.697c0-.812-.142-1.38-.427-1.705-.284-.324-.7-.487-1.25-.487-.71 0-1.274.254-1.69.761-.417.508-.625 1.208-.625 2.1v6.028c0 .832-.26 1.456-.777 1.872-.518.416-1.163.624-1.935.624s-1.417-.208-1.935-.624c-.518-.416-.777-1.04-.777-1.872V9.235c0-.791.269-1.395.807-1.81.539-.417 1.184-.625 1.935-.625.711 0 1.305.188 1.783.563.477.376.726.918.746 1.629.996-1.502 2.52-2.253 4.571-2.253 2.174 0 3.627.883 4.358 2.649a5.573 5.573 0 0 1 2.042-1.934c.853-.476 1.818-.715 2.895-.715zM2.965 34.032l3.137-4.057h.432v4.911h-.501V30.83l-3.127 4.056h-.432v-4.91h.491v4.056zm12.269.854h-4.326v-.471l2.527-2.593c.737-.766 1.11-1.414 1.11-1.945 0-.913-.648-1.473-1.513-1.473-.767 0-1.318.344-1.642 1.041l-.442-.265c.403-.825 1.17-1.277 2.084-1.277.56 0 1.032.177 1.435.53.403.354.61.835.61 1.444 0 .786-.472 1.493-1.288 2.318l-2.134 2.19h3.579v.501zm5.613-.854c-.452.638-1.081.962-1.897.962-.816 0-1.445-.324-1.898-.962-.452-.639-.678-1.503-.678-2.583 0-1.08.226-1.945.678-2.583.453-.639 1.082-.963 1.898-.963.816 0 1.445.324 1.897.963.453.638.679 1.502.679 2.583 0 1.08-.226 1.944-.679 2.583zm-3.401-.334c.363.53.865.795 1.504.795s1.14-.265 1.504-.795c.364-.54.54-1.287.54-2.25 0-.962-.176-1.708-.54-2.239-.364-.54-.865-.805-1.504-.805-.64 0-1.14.265-1.504.805-.364.53-.541 1.277-.541 2.24 0 .962.177 1.709.54 2.249zm12.79.334c-.453.638-1.082.962-1.898.962-.816 0-1.445-.324-1.898-.962-.452-.639-.678-1.503-.678-2.583 0-1.08.226-1.945.678-2.583.453-.639 1.082-.963 1.898-.963.816 0 1.445.324 1.897.963.453.638.679 1.502.679 2.583 0 1.08-.226 1.944-.679 2.583zm-3.402-.334c.363.53.865.795 1.504.795s1.14-.265 1.504-.795c.364-.54.54-1.287.54-2.25 0-.962-.176-1.708-.54-2.239-.364-.54-.865-.805-1.504-.805-.64 0-1.14.265-1.504.805-.364.53-.541 1.277-.541 2.24 0 .962.177 1.709.54 2.249zm9.88.334c-.453.638-1.082.962-1.898.962-.816 0-1.445-.324-1.897-.962-.453-.639-.679-1.503-.679-2.583 0-1.08.226-1.945.679-2.583.452-.639 1.081-.963 1.897-.963.816 0 1.445.324 1.898.963.452.638.678 1.502.678 2.583 0 1.08-.226 1.944-.678 2.583zm-3.402-.334c.364.53.865.795 1.504.795.64 0 1.14-.265 1.504-.795.364-.54.541-1.287.541-2.25 0-.962-.177-1.708-.54-2.239-.364-.54-.866-.805-1.505-.805-.639 0-1.14.265-1.504.805-.364.53-.54 1.277-.54 2.24 0 .962.176 1.709.54 2.249zm9.88.334c-.452.638-1.081.962-1.897.962-.816 0-1.446-.324-1.898-.962-.452-.639-.678-1.503-.678-2.583 0-1.08.226-1.945.678-2.583.452-.639 1.082-.963 1.898-.963.816 0 1.445.324 1.897.963.452.638.678 1.502.678 2.583 0 1.08-.226 1.944-.678 2.583zm-3.402-.334c.364.53.866.795 1.505.795.639 0 1.14-.265 1.504-.795.364-.54.54-1.287.54-2.25 0-.962-.176-1.708-.54-2.239-.364-.54-.865-.805-1.504-.805-.64 0-1.14.265-1.505.805-.363.53-.54 1.277-.54 2.24 0 .962.177 1.709.54 2.249zm7.747-2.485h1.76v.471h-1.76v1.758h-.482v-1.758h-1.76v-.471h1.76v-1.758h.482v1.758zm8.474 3.791c-.708 0-1.298-.236-1.77-.697-.472-.472-.708-1.08-.708-1.827 0-.815.118-1.454.354-1.896.246-.451.738-.864 1.485-1.227l.51-.226c.394-.167.59-.236.866-.383.393-.216.64-.432.698-.864l.393.225c-.068.364-.226.629-.58.865a6.509 6.509 0 0 1-.452.265 6.589 6.589 0 0 1-.59.265l-.58.246c-.482.216-.845.451-1.071.707-.227.255-.374.599-.453 1.031.462-.717 1.259-1.07 2.006-1.07.659 0 1.2.215 1.632.648.432.432.649.982.649 1.65 0 .658-.226 1.208-.679 1.64-.442.432-1.012.648-1.71.648zm0-.491c.55 0 1.003-.167 1.356-.501.354-.344.531-.776.531-1.296 0-.53-.167-.963-.51-1.307-.345-.343-.787-.51-1.328-.51-.502 0-.944.157-1.347.471-.393.314-.61.717-.649 1.218 0 .56.187 1.021.55 1.385.364.363.836.54 1.397.54zm4.246-2.632h1.455c.453 0 .836.137 1.15.422.315.285.473.639.473 1.08 0 .442-.158.796-.472 1.08-.315.286-.698.423-1.15.423h-1.947v-4.91h.491v1.905zm0 2.524h1.455c.63 0 1.121-.422 1.121-1.022 0-.618-.481-1.02-1.12-1.02h-1.456v2.042zm8.583-4.538c.717 0 1.317.246 1.819.747.501.49.757 1.1.757 1.817a2.49 2.49 0 0 1-.757 1.827 2.494 2.494 0 0 1-1.82.736c-.678 0-1.258-.216-1.74-.658-.481-.442-.747-1.002-.806-1.67h-1.1v2.22H64.7v-4.91h.491v2.22h1.101c.06-.669.325-1.219.807-1.66a2.488 2.488 0 0 1 1.74-.669zm-1.485 4.047c.403.402.905.609 1.485.609.58 0 1.071-.207 1.474-.61.404-.402.6-.903.6-1.482 0-.58-.196-1.08-.6-1.483a2.012 2.012 0 0 0-1.474-.61c-.58 0-1.082.207-1.485.61-.403.402-.6.903-.6 1.483 0 .58.197 1.08.6 1.483zm4.7-3.939h4.07v.482h-1.79v4.43h-.492v-4.43h-1.789v-.482zm5.73 4.057l3.137-4.057h.432v4.911h-.501V30.83l-3.127 4.056h-.432v-4.91h.491v4.056zm9.005-1.945h-3.539v-.471h3.54v.471zm.963-2.112h4.07v.482h-1.789v4.43h-.491v-4.43h-1.79v-.482zm7.295 5.02c-.718 0-1.337-.246-1.839-.737-.501-.501-.747-1.11-.747-1.827 0-.717.246-1.326.747-1.817.502-.501 1.121-.747 1.839-.747s1.317.246 1.819.747c.501.49.757 1.1.757 1.817a2.49 2.49 0 0 1-.757 1.827 2.494 2.494 0 0 1-1.82.736zm-1.485-1.081c.403.402.905.609 1.485.609.58 0 1.071-.207 1.475-.61.403-.402.6-.903.6-1.482 0-.58-.197-1.08-.6-1.483a2.012 2.012 0 0 0-1.475-.61c-.58 0-1.082.207-1.485.61-.403.402-.6.903-.6 1.483 0 .58.197 1.08.6 1.483zm8.553-1.562c.58.187.865.58.865 1.179 0 .785-.53 1.355-1.514 1.355h-2.379v-4.91h2.192c.934 0 1.465.54 1.465 1.286 0 .52-.206.884-.629 1.09zm-.836-1.895h-1.7v1.699h1.7c.63 0 .964-.314.964-.864 0-.521-.344-.835-.964-.835zm-1.7 3.948h1.887c.659 0 1.023-.334 1.023-.894 0-.55-.384-.874-1.023-.874H99.58v1.768zm9.103-3.32v-1.11h.501v4.911h-.501v-1.11c-.423.757-1.18 1.218-2.114 1.218a2.48 2.48 0 0 1-1.799-.736c-.501-.501-.747-1.11-.747-1.827 0-.717.246-1.326.747-1.817a2.452 2.452 0 0 1 1.8-.747c.933 0 1.69.462 2.113 1.218zm-3.559 2.829c.403.402.905.609 1.485.609.58 0 1.071-.207 1.474-.61.403-.402.6-.903.6-1.482 0-.58-.197-1.08-.6-1.483a2.012 2.012 0 0 0-1.474-.61c-.58 0-1.082.207-1.485.61-.403.402-.6.903-.6 1.483 0 .58.197 1.08.6 1.483zm8.464-4.047c.708 0 1.308.246 1.8.747.5.49.747 1.1.747 1.817 0 .717-.246 1.326-.747 1.827a2.45 2.45 0 0 1-1.8.736c-.934 0-1.71-.471-2.113-1.247v3.103h-.492v-6.875h.492v1.14c.403-.776 1.18-1.248 2.113-1.248zm-1.514 4.047c.403.402.905.609 1.485.609.58 0 1.072-.207 1.475-.61a2.03 2.03 0 0 0 .61-1.482c0-.58-.207-1.08-.61-1.483a2.012 2.012 0 0 0-1.475-.61c-.58 0-1.082.207-1.485.61-.403.402-.6.903-.6 1.483 0 .58.197 1.08.6 1.483zm7.786 1.08c-.717 0-1.337-.245-1.838-.736-.502-.501-.747-1.11-.747-1.827 0-.717.245-1.326.747-1.817.501-.501 1.12-.747 1.838-.747s1.318.246 1.82.747c.5.49.756 1.1.756 1.817a2.49 2.49 0 0 1-.757 1.827 2.494 2.494 0 0 1-1.819.736zm-1.484-1.08c.403.402.904.609 1.484.609s1.072-.207 1.475-.61c.403-.402.6-.903.6-1.482 0-.58-.197-1.08-.6-1.483a2.012 2.012 0 0 0-1.475-.61c-.58 0-1.081.207-1.484.61-.403.402-.6.903-.6 1.483 0 .58.197 1.08.6 1.483zm8.553-1.562c.58.187.865.58.865 1.179 0 .785-.531 1.355-1.514 1.355h-2.38v-4.91h2.193c.934 0 1.465.54 1.465 1.286 0 .52-.207.884-.63 1.09zm-.836-1.895h-1.7v1.699h1.7c.63 0 .963-.314.963-.864 0-.521-.344-.835-.963-.835zm-1.7 3.948h1.887c.658 0 1.022-.334 1.022-.894 0-.55-.383-.874-1.022-.874h-1.888v1.768zm7.057-4.43h4.07v.482h-1.79v4.43h-.49v-4.43h-1.79v-.482zm7.294 5.02c-.717 0-1.337-.246-1.838-.737-.501-.501-.747-1.11-.747-1.827 0-.717.246-1.326.747-1.817.501-.501 1.12-.747 1.838-.747s1.318.246 1.82.747c.5.49.756 1.1.756 1.817a2.49 2.49 0 0 1-.757 1.827 2.494 2.494 0 0 1-1.819.736zm-1.484-1.081c.403.402.904.609 1.484.609s1.072-.207 1.475-.61c.403-.402.6-.903.6-1.482 0-.58-.197-1.08-.6-1.483a2.012 2.012 0 0 0-1.475-.61c-.58 0-1.081.207-1.484.61-.403.402-.6.903-.6 1.483 0 .58.197 1.08.6 1.483zm8.346-1.581l2.32 2.553h-.609l-2.173-2.416v2.416h-.501V32.47l-2.173 2.416h-.61l2.33-2.553-2.231-2.358h.61l2.074 2.22v-2.22h.501v2.22l2.075-2.22h.61l-2.223 2.358zm5.407-2.466c.718 0 1.308.256 1.75.766.452.511.678 1.12.678 1.817 0 .05-.01.187-.01.236h-4.453c.059.55.275.992.659 1.336.383.334.865.5 1.425.5.787 0 1.396-.353 1.701-.893l.433.255c-.403.678-1.19 1.11-2.144 1.11-.757 0-1.376-.236-1.858-.717-.481-.481-.727-1.1-.727-1.846 0-.737.236-1.346.708-1.827.481-.491 1.09-.737 1.838-.737zm0 .472c-.56 0-1.022.177-1.396.52-.374.344-.59.796-.639 1.346h3.952c-.049-.58-.265-1.041-.629-1.365a1.83 1.83 0 0 0-1.288-.501zm8.985-.472c.718 0 1.308.256 1.75.766.452.511.678 1.12.678 1.817 0 .05-.01.187-.01.236h-4.453c.059.55.275.992.659 1.336.383.334.865.5 1.425.5.787 0 1.396-.353 1.701-.893l.433.255c-.404.678-1.19 1.11-2.144 1.11-.757 0-1.376-.236-1.858-.717-.482-.481-.727-1.1-.727-1.846 0-.737.236-1.346.708-1.827.481-.491 1.09-.737 1.838-.737zm0 .472c-.56 0-1.022.177-1.396.52-.374.344-.59.796-.64 1.346h3.953c-.049-.58-.265-1.041-.63-1.365a1.83 1.83 0 0 0-1.287-.501zm6.115 4.655c-.738 0-1.357-.245-1.849-.736-.491-.492-.737-1.1-.737-1.827 0-.727.246-1.336.737-1.827.492-.491 1.111-.737 1.849-.737.953 0 1.789.482 2.143 1.258l-.403.235c-.285-.628-.954-1.021-1.74-1.021-.59 0-1.082.206-1.485.609-.403.402-.6.894-.6 1.483 0 .59.197 1.09.6 1.493.403.402.895.599 1.485.599.786 0 1.445-.393 1.77-1.022l.412.246c-.393.756-1.229 1.247-2.182 1.247zm2.82-5.019h4.071v.482h-1.79v4.43h-.49v-4.43h-1.79v-.482zm5.732 1.906h1.455c.452 0 .836.137 1.15.422.315.285.472.639.472 1.08 0 .442-.157.796-.472 1.08-.314.286-.698.423-1.15.423h-1.947v-4.91h.492v1.905zm0 2.524h1.455c.63 0 1.12-.422 1.12-1.022 0-.618-.48-1.02-1.12-1.02h-1.455v2.042zm-64.884-19.053v-6.14h1.154v13.052h-1.154v-5.758h-8.059v5.758h-1.154V9.213h1.154v6.139h8.059zm17.66-3.161V9.213h1.308v13.05h-1.308v-3.048c-1.104 1.973-3.08 3.178-5.518 3.178-1.821 0-3.387-.64-4.696-1.922-1.308-1.308-1.95-2.897-1.95-4.768 0-1.872.642-3.461 1.95-4.743 1.31-1.307 2.875-1.948 4.696-1.948 2.438 0 4.414 1.205 5.518 3.179zm-9.29 7.382c1.052 1.051 2.361 1.59 3.875 1.59 1.514 0 2.797-.539 3.85-1.59 1.051-1.05 1.565-2.358 1.565-3.87 0-1.513-.514-2.82-1.566-3.871-1.052-1.051-2.335-1.59-3.849-1.59-1.514 0-2.823.539-3.875 1.59-1.052 1.05-1.565 2.358-1.565 3.87 0 1.513.513 2.82 1.565 3.871zm25.682-10.28v11.562h1.796v4.691h-1.309v-3.435h-11.085v3.435h-1.309v-4.69h1.488c.95-1.283 1.412-3 1.412-5.153v-6.41h9.007zm-8.828 11.562h7.52V10.55h-6.416v5.153c0 2.102-.36 3.82-1.104 5.152zm19.553 1.538c-1.873 0-3.49-.64-4.799-1.922-1.308-1.308-1.95-2.897-1.95-4.768 0-1.872.642-3.461 1.95-4.743 1.31-1.307 2.926-1.948 4.799-1.948 1.873 0 3.439.64 4.747 1.948 1.31 1.282 1.976 2.871 1.976 4.743 0 1.87-.667 3.46-1.976 4.768-1.308 1.281-2.874 1.922-4.747 1.922zm-3.875-2.82c1.052 1.051 2.361 1.59 3.875 1.59 1.514 0 2.797-.539 3.85-1.59 1.051-1.05 1.565-2.358 1.565-3.87 0-1.513-.514-2.82-1.566-3.871-1.052-1.051-2.335-1.59-3.849-1.59-1.514 0-2.823.539-3.875 1.59-1.052 1.05-1.565 2.358-1.565 3.87 0 1.513.513 2.82 1.565 3.871zm17.654-2.076h-1.36c0-1.666.795-3.127 1.745-4.153 1.385-1.487 3.207-2.922 3.207-4.845 0-2.128-1.514-3.307-3.9-3.307-2.053 0-3.644.974-4.183 2.718l-1.155-.641c.744-2.18 2.874-3.384 5.338-3.384 1.514 0 2.771.41 3.772 1.23 1 .795 1.514 1.923 1.514 3.384 0 1.436-.77 2.717-1.77 3.743-1.386 1.435-3.208 2.973-3.208 5.255zm.154 4.537c-.436.436-1.206.436-1.643 0-.436-.435-.436-1.204 0-1.64.437-.436 1.207-.436 1.643 0 .436.436.436 1.205 0 1.64zm10.52-4.537h-1.027l-.257-8.203V4.167h1.54v5.127l-.256 8.203zm.307 4.537c-.436.436-1.206.436-1.642 0-.436-.435-.436-1.204 0-1.64.436-.436 1.206-.436 1.642 0 .437.436.437 1.205 0 1.64z"/>
    </defs>
    <g fill="none" fill-rule="evenodd">
        <mask id="b" fill="#fff">
            <use xlink:href="#a"/>
        </mask>
        <g fill="#000" mask="url(#b)">
            <path d="M0 0h184.252v37.874H0z"/>
        </g>
    </g>
</svg>
