<svg xmlns="http://www.w3.org/2000/svg" width="234" height="49" viewBox="0 0 234 49">
    <defs>
        <path id="a" d="M13.972 29.12c-2.805 0-5.26-.582-7.363-1.745-2.104-1.163-3.731-2.829-4.882-4.996C.576 20.21 0 17.673 0 14.766c0-2.882.576-5.406 1.727-7.574 1.15-2.168 2.778-3.833 4.882-4.996C8.713 1.033 11.167.45 13.972.45c3.36 0 6.311.886 8.851 2.657.45.317.774.66.973 1.03.198.371.298.847.298 1.428 0 .82-.232 1.514-.695 2.082-.463.568-1.025.853-1.687.853-.397 0-.754-.06-1.072-.179a6.439 6.439 0 0 1-1.111-.575c-.926-.555-1.8-.951-2.62-1.19a9.074 9.074 0 0 0-2.54-.356c-2.355 0-4.108.707-5.26 2.121-1.15 1.414-1.726 3.562-1.726 6.444 0 2.907.575 5.068 1.726 6.483 1.152 1.414 2.905 2.121 5.26 2.121.794 0 1.561-.126 2.302-.377.74-.25 1.694-.64 2.858-1.17.556-.29.966-.488 1.23-.594.265-.106.582-.159.953-.159.662 0 1.224.284 1.687.853.463.568.695 1.262.695 2.081 0 .556-.1 1.025-.298 1.408-.199.383-.523.734-.973 1.05-2.54 1.772-5.49 2.658-8.851 2.658zM40.38 8.857c.9-.079 1.615.126 2.144.615.53.49.794 1.21.794 2.161 0 1.057-.245 1.824-.735 2.3-.49.476-1.369.78-2.64.912l-1.19.119c-1.323.158-2.27.575-2.838 1.249-.569.674-.853 1.593-.853 2.756v6.78c0 1.084-.338 1.897-1.013 2.439-.674.542-1.515.813-2.52.813-1.006 0-1.846-.271-2.52-.813-.675-.542-1.013-1.355-1.013-2.439V12.03c0-1.004.338-1.784 1.012-2.339.675-.555 1.489-.833 2.442-.833.979 0 1.766.265 2.361.793.596.53.893 1.27.893 2.221v.753c.424-1.163 1.118-2.062 2.084-2.696.966-.634 1.978-.978 3.037-1.03l.555-.04zm21.18 13.64c.608 0 1.104.239 1.488.714.384.476.575 1.097.575 1.864 0 1.057-.516 1.864-1.548 2.419-.9.45-1.964.826-3.195 1.13-1.23.304-2.362.456-3.394.456-2.17 0-4.062-.41-5.676-1.23-1.614-.819-2.858-1.995-3.73-3.528-.874-1.534-1.31-3.331-1.31-5.393 0-1.956.416-3.707 1.25-5.254.833-1.546 1.997-2.749 3.493-3.608 1.495-.86 3.182-1.289 5.06-1.289 1.826 0 3.427.397 4.803 1.19 1.376.793 2.441 1.916 3.196 3.37.754 1.454 1.13 3.159 1.13 5.115 0 .608-.138 1.077-.416 1.408-.278.33-.681.495-1.21.495h-10.48c.186 1.27.596 2.181 1.23 2.736.636.556 1.575.833 2.82.833.66 0 1.27-.073 1.825-.218a17.91 17.91 0 0 0 1.866-.615c.396-.158.787-.297 1.17-.416a3.58 3.58 0 0 1 1.052-.178zm-6.788-8.96c-.926 0-1.667.297-2.223.892-.556.594-.886 1.46-.992 2.597h6.232c-.16-2.327-1.165-3.49-3.017-3.49zm22.385-4.759c3.016 0 5.246.72 6.688 2.161 1.442 1.44 2.163 3.628 2.163 6.563v8.287c0 1.004-.298 1.79-.893 2.36-.595.567-1.422.852-2.48.852-.927 0-1.688-.265-2.283-.793-.596-.53-.92-1.243-.973-2.142a4.39 4.39 0 0 1-1.865 2.22c-.873.53-1.919.794-3.136.794-1.35 0-2.567-.271-3.652-.813-1.085-.542-1.938-1.295-2.56-2.26-.622-.965-.933-2.055-.933-3.271 0-1.401.364-2.518 1.092-3.351.728-.833 1.885-1.434 3.473-1.804 1.588-.37 3.731-.555 6.43-.555H79.3v-.476c0-.925-.212-1.593-.635-2.003-.424-.41-1.138-.614-2.144-.614-1.084 0-2.672.37-4.763 1.11-.608.212-1.124.317-1.548.317-.661 0-1.19-.238-1.587-.713-.397-.476-.596-1.097-.596-1.864 0-.582.12-1.057.357-1.427.239-.37.622-.701 1.152-.992.926-.476 2.09-.859 3.492-1.15a20.3 20.3 0 0 1 4.129-.436zm-1.112 15.583c.953 0 1.733-.337 2.342-1.01.609-.675.913-1.54.913-2.598v-.476h-.635c-1.694 0-2.898.152-3.612.456-.715.304-1.072.813-1.072 1.527 0 .608.192 1.11.576 1.507.383.396.88.594 1.488.594zm39.881-15.583c2.144 0 3.798.641 4.962 1.923 1.164 1.282 1.746 3.443 1.746 6.483v8.565c0 1.084-.337 1.897-1.012 2.439-.674.542-1.515.813-2.52.813-1.006 0-1.846-.271-2.52-.813-.675-.542-1.013-1.355-1.013-2.439v-8.723c0-1.058-.185-1.798-.556-2.22-.37-.424-.912-.635-1.627-.635-.926 0-1.667.33-2.223.991-.555.661-.833 1.573-.833 2.736v7.851c0 1.084-.331 1.897-.993 2.439-.661.542-1.508.813-2.54.813-1.005 0-1.846-.271-2.52-.813-.675-.542-1.013-1.355-1.013-2.439v-8.723c0-1.058-.185-1.798-.555-2.22-.37-.424-.913-.635-1.628-.635-.926 0-1.66.33-2.203.991-.542.661-.813 1.573-.813 2.736v7.851c0 1.084-.338 1.897-1.013 2.439-.674.542-1.514.813-2.52.813s-1.846-.271-2.52-.813c-.675-.542-1.013-1.355-1.013-2.439V12.03c0-1.03.35-1.817 1.052-2.359.701-.542 1.542-.813 2.52-.813.927 0 1.7.245 2.323.734.622.489.946 1.196.972 2.121 1.297-1.956 3.281-2.934 5.954-2.934 2.832 0 4.724 1.15 5.676 3.45a7.259 7.259 0 0 1 2.66-2.518c1.111-.621 2.368-.932 3.77-.932zM3.863 44.328l4.085-5.283h.563v6.396h-.653v-5.283l-4.072 5.283h-.564v-6.396h.64v5.283zm15.98 1.113H14.21v-.614l3.29-3.377c.961-.998 1.448-1.842 1.448-2.533 0-1.19-.845-1.919-1.972-1.919-1 0-1.716.448-2.139 1.356l-.576-.345c.525-1.075 1.524-1.663 2.715-1.663.73 0 1.344.23 1.87.69.524.461.793 1.088.793 1.881 0 1.023-.614 1.945-1.677 3.02l-2.78 2.852h4.662v.652zm7.312-1.113c-.59.832-1.409 1.254-2.472 1.254s-1.882-.422-2.471-1.254c-.59-.831-.884-1.957-.884-3.364 0-1.407.295-2.533.884-3.365.589-.831 1.408-1.253 2.471-1.253 1.063 0 1.883.422 2.472 1.253.589.832.884 1.958.884 3.365 0 1.407-.295 2.533-.884 3.364zm-4.431-.435c.474.691 1.127 1.037 1.96 1.037.832 0 1.485-.346 1.959-1.037.473-.703.704-1.675.704-2.93 0-1.253-.23-2.225-.704-2.916-.474-.703-1.127-1.049-1.96-1.049-.832 0-1.485.346-1.959 1.05-.474.69-.704 1.662-.704 2.916s.23 2.226.704 2.93zm16.66.435c-.59.832-1.41 1.254-2.472 1.254-1.063 0-1.883-.422-2.472-1.254-.589-.831-.883-1.957-.883-3.364 0-1.407.294-2.533.883-3.365.59-.831 1.409-1.253 2.472-1.253s1.882.422 2.471 1.253c.59.832.884 1.958.884 3.365 0 1.407-.295 2.533-.884 3.364zm-4.432-.435c.474.691 1.127 1.037 1.96 1.037.832 0 1.485-.346 1.96-1.037.473-.703.703-1.675.703-2.93 0-1.253-.23-2.225-.704-2.916-.474-.703-1.127-1.049-1.96-1.049-.832 0-1.485.346-1.959 1.05-.473.69-.704 1.662-.704 2.916s.23 2.226.704 2.93zm12.87.435c-.59.832-1.409 1.254-2.472 1.254s-1.882-.422-2.471-1.254c-.59-.831-.884-1.957-.884-3.364 0-1.407.295-2.533.884-3.365.589-.831 1.408-1.253 2.471-1.253 1.063 0 1.883.422 2.472 1.253.589.832.884 1.958.884 3.365 0 1.407-.295 2.533-.884 3.364zm-4.431-.435c.474.691 1.127 1.037 1.96 1.037.832 0 1.485-.346 1.959-1.037.473-.703.704-1.675.704-2.93 0-1.253-.23-2.225-.704-2.916-.474-.703-1.127-1.049-1.96-1.049-.832 0-1.485.346-1.959 1.05-.474.69-.704 1.662-.704 2.916s.23 2.226.704 2.93zm12.87.435c-.59.832-1.41 1.254-2.472 1.254-1.063 0-1.883-.422-2.472-1.254-.589-.831-.883-1.957-.883-3.364 0-1.407.294-2.533.883-3.365.59-.831 1.409-1.253 2.472-1.253s1.882.422 2.471 1.253c.59.832.884 1.958.884 3.365 0 1.407-.294 2.533-.884 3.364zm-4.431-.435c.473.691 1.126 1.037 1.959 1.037.832 0 1.485-.346 1.96-1.037.473-.703.704-1.675.704-2.93 0-1.253-.231-2.225-.705-2.916-.474-.703-1.127-1.049-1.96-1.049-.832 0-1.485.346-1.958 1.05-.474.69-.705 1.662-.705 2.916s.23 2.226.705 2.93zm10.09-3.236h2.292v.614H61.92v2.29h-.627v-2.29H59v-.614h2.293v-2.29h.627v2.29zm11.038 4.938c-.922 0-1.69-.307-2.306-.908-.614-.614-.922-1.408-.922-2.38 0-1.062.154-1.893.461-2.469.32-.588.96-1.126 1.934-1.599l.666-.294c.512-.218.768-.307 1.127-.5.512-.28.832-.562.91-1.125l.512.294c-.09.474-.295.82-.756 1.126-.218.14-.423.256-.59.346-.166.09-.422.204-.767.345l-.756.32c-.628.281-1.101.588-1.396.92-.294.333-.487.781-.589 1.344.602-.934 1.64-1.394 2.612-1.394.858 0 1.563.281 2.126.844.564.563.845 1.28.845 2.15 0 .856-.294 1.573-.883 2.136-.576.562-1.32.844-2.228.844zm0-.64c.717 0 1.306-.217 1.767-.652.46-.448.691-1.01.691-1.689 0-.69-.217-1.254-.666-1.701-.448-.448-1.024-.665-1.728-.665-.654 0-1.23.204-1.755.614-.512.409-.794.933-.845 1.586 0 .73.243 1.33.717 1.804.474.473 1.089.703 1.819.703zm5.531-3.428h1.895c.59 0 1.089.179 1.499.55.41.37.614.831.614 1.407 0 .576-.204 1.036-.614 1.407-.41.371-.91.55-1.499.55H77.85v-6.396h.64v2.482zm0 3.288h1.895c.82 0 1.46-.55 1.46-1.33 0-.807-.627-1.331-1.46-1.331H78.49v2.66zm11.18-5.91c.934 0 1.715.32 2.368.972.653.64.986 1.432.986 2.366 0 .934-.333 1.727-.986 2.38-.653.64-1.434.96-2.369.96-.883 0-1.639-.282-2.266-.858-.628-.576-.974-1.305-1.05-2.175h-1.435v2.891h-.64v-6.396h.64v2.891h1.434c.077-.87.423-1.586 1.05-2.162.628-.576 1.384-.87 2.267-.87zm-1.935 5.27a2.65 2.65 0 0 0 1.934.793 2.62 2.62 0 0 0 1.921-.793c.525-.525.781-1.177.781-1.932 0-.755-.256-1.407-.78-1.932a2.62 2.62 0 0 0-1.922-.793 2.65 2.65 0 0 0-1.934.793c-.525.525-.78 1.177-.78 1.932 0 .755.255 1.407.78 1.932zm6.121-5.13h5.302v.627h-2.33v5.77h-.641v-5.77h-2.33v-.627zm7.465 5.283l4.086-5.283h.563v6.396h-.653v-5.283l-4.072 5.283h-.564v-6.396h.64v5.283zm11.73-2.533h-4.61v-.614h4.61v.614zm1.254-2.75h5.302v.627h-2.33v5.77h-.64v-5.77h-2.332v-.627zm9.502 6.537c-.935 0-1.742-.32-2.395-.96-.653-.652-.973-1.445-.973-2.379 0-.934.32-1.727.973-2.366.653-.653 1.46-.973 2.395-.973s1.716.32 2.369.973c.653.64.986 1.432.986 2.366 0 .934-.333 1.727-.986 2.38-.653.64-1.434.96-2.37.96zm-1.934-1.407a2.65 2.65 0 0 0 1.934.793 2.62 2.62 0 0 0 1.92-.793c.526-.525.782-1.177.782-1.932 0-.755-.256-1.407-.781-1.932a2.62 2.62 0 0 0-1.921-.793 2.65 2.65 0 0 0-1.934.793c-.525.525-.781 1.177-.781 1.932 0 .755.256 1.407.781 1.932zm11.14-2.034c.756.243 1.128.755 1.128 1.535 0 1.023-.692 1.765-1.972 1.765h-3.1v-6.396h2.856c1.217 0 1.908.704 1.908 1.676 0 .678-.269 1.151-.82 1.42zm-1.088-2.47h-2.215v2.214h2.215c.82 0 1.255-.41 1.255-1.126 0-.678-.448-1.087-1.255-1.087zm-2.215 5.144h2.459c.858 0 1.331-.435 1.331-1.165 0-.716-.499-1.138-1.331-1.138h-2.46v2.303zm11.858-4.324v-1.446h.653v6.396h-.653v-1.445c-.551.985-1.537 1.586-2.754 1.586-.909 0-1.69-.32-2.343-.96-.653-.652-.974-1.445-.974-2.379 0-.934.32-1.727.974-2.366a3.193 3.193 0 0 1 2.343-.973c1.217 0 2.203.602 2.754 1.587zm-4.636 3.684a2.65 2.65 0 0 0 1.933.793 2.62 2.62 0 0 0 1.921-.793c.525-.525.782-1.177.782-1.932 0-.755-.257-1.407-.782-1.932a2.62 2.62 0 0 0-1.92-.793 2.65 2.65 0 0 0-1.934.793c-.525.525-.781 1.177-.781 1.932 0 .755.256 1.407.78 1.932zm11.025-5.27c.922 0 1.703.32 2.344.972.653.64.973 1.432.973 2.366 0 .934-.32 1.727-.973 2.38-.64.64-1.422.96-2.344.96-1.216 0-2.228-.615-2.753-1.626V48h-.64v-8.955h.64v1.484c.525-1.01 1.537-1.625 2.753-1.625zm-1.972 5.27a2.65 2.65 0 0 0 1.934.793 2.62 2.62 0 0 0 1.92-.793 2.644 2.644 0 0 0 .795-1.932c0-.755-.27-1.407-.794-1.932a2.62 2.62 0 0 0-1.921-.793 2.65 2.65 0 0 0-1.934.793c-.525.525-.781 1.177-.781 1.932 0 .755.256 1.407.781 1.932zm10.142 1.407c-.935 0-1.742-.32-2.395-.96-.653-.652-.973-1.445-.973-2.379 0-.934.32-1.727.973-2.366.653-.653 1.46-.973 2.395-.973s1.716.32 2.369.973c.653.64.986 1.432.986 2.366 0 .934-.333 1.727-.986 2.38-.653.64-1.434.96-2.37.96zm-1.934-1.407a2.65 2.65 0 0 0 1.934.793 2.62 2.62 0 0 0 1.92-.793c.526-.525.782-1.177.782-1.932 0-.755-.256-1.407-.781-1.932a2.62 2.62 0 0 0-1.921-.793 2.65 2.65 0 0 0-1.934.793c-.525.525-.781 1.177-.781 1.932 0 .755.256 1.407.781 1.932zm11.14-2.034c.756.243 1.128.755 1.128 1.535 0 1.023-.692 1.765-1.973 1.765h-3.099v-6.396h2.856c1.217 0 1.908.704 1.908 1.676 0 .678-.269 1.151-.82 1.42zm-1.088-2.47h-2.215v2.214h2.215c.82 0 1.255-.41 1.255-1.126 0-.678-.448-1.087-1.255-1.087zm-2.215 5.144h2.458c.858 0 1.332-.435 1.332-1.165 0-.716-.5-1.138-1.332-1.138h-2.458v2.303zm9.193-5.77h5.302v.627h-2.33v5.77h-.641v-5.77h-2.33v-.627zm9.502 6.537c-.935 0-1.742-.32-2.395-.96-.653-.652-.973-1.445-.973-2.379 0-.934.32-1.727.973-2.366.653-.653 1.46-.973 2.395-.973.934 0 1.716.32 2.369.973.653.64.986 1.432.986 2.366 0 .934-.333 1.727-.986 2.38-.653.64-1.435.96-2.37.96zm-1.934-1.407a2.65 2.65 0 0 0 1.934.793 2.62 2.62 0 0 0 1.92-.793c.526-.525.782-1.177.782-1.932 0-.755-.256-1.407-.782-1.932a2.62 2.62 0 0 0-1.92-.793 2.65 2.65 0 0 0-1.934.793c-.525.525-.781 1.177-.781 1.932 0 .755.256 1.407.78 1.932zm10.872-2.06l3.022 3.326h-.794l-2.83-3.147v3.147h-.653v-3.147l-2.83 3.147h-.795l3.035-3.326-2.907-3.07h.794l2.703 2.891v-2.891h.653v2.891l2.702-2.891h.794l-2.894 3.07zm7.042-3.21c.935 0 1.703.332 2.28.997.589.665.883 1.458.883 2.367 0 .064-.012.243-.012.307h-5.802c.077.716.359 1.292.858 1.74.5.435 1.127.652 1.857.652 1.025 0 1.819-.46 2.216-1.164l.563.333c-.525.882-1.55 1.445-2.792 1.445-.986 0-1.792-.307-2.42-.934-.627-.627-.948-1.433-.948-2.405 0-.96.308-1.752.922-2.38.628-.639 1.422-.959 2.395-.959zm0 .613c-.73 0-1.332.23-1.818.678-.487.448-.769 1.037-.833 1.753h5.148c-.064-.755-.345-1.356-.82-1.778a2.384 2.384 0 0 0-1.677-.653zm11.704-.614c.934 0 1.703.333 2.28.998.588.665.883 1.458.883 2.367 0 .064-.013.243-.013.307h-5.801c.077.716.358 1.292.858 1.74.5.435 1.127.652 1.857.652 1.024 0 1.818-.46 2.215-1.164l.564.333c-.525.882-1.55 1.445-2.792 1.445-.986 0-1.793-.307-2.42-.934-.628-.627-.948-1.433-.948-2.405 0-.96.307-1.752.922-2.38.627-.639 1.421-.959 2.395-.959zm0 .614c-.73 0-1.332.23-1.819.678-.486.448-.768 1.037-.832 1.753h5.148c-.064-.755-.346-1.356-.82-1.778a2.384 2.384 0 0 0-1.677-.653zm7.964 6.064c-.96 0-1.767-.32-2.407-.96-.64-.639-.96-1.432-.96-2.379 0-.946.32-1.74.96-2.38.64-.639 1.447-.959 2.407-.959 1.243 0 2.331.627 2.792 1.638l-.525.307c-.371-.819-1.242-1.33-2.267-1.33a2.63 2.63 0 0 0-1.933.792c-.525.525-.782 1.165-.782 1.932 0 .768.257 1.42.782 1.945.525.524 1.165.78 1.933.78 1.025 0 1.883-.512 2.305-1.33l.538.32c-.512.984-1.6 1.624-2.843 1.624zm3.675-6.537h5.302v.627h-2.331v5.77h-.64v-5.77h-2.331v-.627zm7.465 2.482h1.896c.589 0 1.088.179 1.498.55.41.37.615.831.615 1.407 0 .576-.205 1.036-.615 1.407-.41.371-.91.55-1.498.55h-2.536v-6.396h.64v2.482zm0 3.288h1.896c.82 0 1.46-.55 1.46-1.33 0-.807-.628-1.331-1.46-1.331h-1.896v2.66zm-84.516-24.818V12h1.504v17h-1.504v-7.5H132.5V29h-1.504V12h1.504v7.997h10.496zM166 15.879V12h1.704v17H166v-3.972c-1.438 2.571-4.011 4.14-7.187 4.14-2.373 0-4.412-.834-6.117-2.504-1.704-1.703-2.54-3.773-2.54-6.21 0-2.438.836-4.508 2.54-6.178 1.705-1.703 3.744-2.537 6.117-2.537 3.176 0 5.75 1.569 7.187 4.14zm-12.1 9.617c1.37 1.369 3.075 2.07 5.047 2.07 1.972 0 3.643-.701 5.014-2.07 1.37-1.37 2.039-3.072 2.039-5.042 0-1.97-.669-3.673-2.04-5.042-1.37-1.37-3.041-2.07-5.013-2.07s-3.677.7-5.047 2.07c-1.37 1.369-2.04 3.072-2.04 5.042 0 1.97.67 3.673 2.04 5.042zm33.452-13.39v15.06h2.34v6.11h-1.705V28.8h-14.44v4.475h-1.705v-6.11h1.939c1.237-1.67 1.838-3.908 1.838-6.712v-8.348h11.733zm-11.499 15.06h9.794V13.741h-8.356v6.712c0 2.738-.468 4.975-1.438 6.711zm25.469 2.003c-2.44 0-4.546-.835-6.25-2.505-1.706-1.703-2.541-3.773-2.541-6.21 0-2.438.835-4.508 2.54-6.178 1.705-1.703 3.81-2.537 6.25-2.537s4.48.834 6.184 2.537c1.705 1.67 2.574 3.74 2.574 6.178 0 2.437-.869 4.507-2.574 6.21-1.704 1.67-3.743 2.505-6.183 2.505zm-5.048-3.673c1.37 1.369 3.076 2.07 5.048 2.07s3.643-.701 5.014-2.07c1.37-1.37 2.039-3.072 2.039-5.042 0-1.97-.669-3.673-2.04-5.042-1.37-1.37-3.041-2.07-5.013-2.07s-3.677.7-5.048 2.07c-1.37 1.369-2.038 3.072-2.038 5.042 0 1.97.668 3.673 2.038 5.042zm22.995-2.705h-1.771c0-2.17 1.036-4.074 2.273-5.41 1.805-1.936 4.178-3.806 4.178-6.31 0-2.772-1.972-4.308-5.08-4.308-2.675 0-4.747 1.27-5.449 3.54l-1.504-.835c.97-2.838 3.744-4.408 6.952-4.408 1.972 0 3.61.535 4.914 1.603 1.304 1.035 1.972 2.504 1.972 4.408 0 1.87-1.003 3.54-2.306 4.875-1.805 1.87-4.179 3.873-4.179 6.845zm.201 5.91c-.568.568-1.571.568-2.14 0-.567-.567-.567-1.57 0-2.137.569-.568 1.572-.568 2.14 0 .568.568.568 1.57 0 2.137zm13.703-5.91h-1.337l-.335-10.685V5.428h2.006v6.678l-.334 10.685zm.4 5.91c-.567.568-1.57.568-2.138 0-.569-.567-.569-1.57 0-2.137.568-.568 1.57-.568 2.139 0 .568.568.568 1.57 0 2.137z"/>
    </defs>
</svg>
