<svg xmlns="http://www.w3.org/2000/svg" xmlns:xlink="http://www.w3.org/1999/xlink" width="240" height="240" viewBox="0 0 240 240">
    <defs>
        <path id="a" d="M.374 24.794C2.522 24.468 4 23.787 4 23c0-.828-1.636-1.539-3.968-1.843A37.265 37.265 0 0 1 0 19.607C0 14.437 12.652 0 30.893 0c8.86 0 6.228 6.615 1.592 15.33A9.098 9.098 0 0 0 30 15c-2.761 0-5 1.12-5 2.5 0 1.374 2.216 2.489 4.958 2.5-4.473 8.25-9.238 17.538-7.685 24.722C24.327 54.23 3.605 67 .563 67c-2.398 0 7.822-15.826 5.554-23.739-1.98-6.906-4.749-11.752-5.743-18.467z"/>
        <path id="c" d="M22.206 93.318a15161.284 15161.284 0 0 0-.88 8.726c-1.592 15.877-2.397 24.889-2.397 27.709a8.1 8.1 0 0 1-.007.311L.262 92.45C.086 88.444 0 84.44 0 80.439c0-8.082 1.233-16.044 3.7-23.884l18.278 36.95.228-.187zm1.185-.971l29.45-24.119A466 466 0 0 1 53 80.438c0 8.395-1.17 16.798-3.508 25.21l-29.482 24.18v-.075c0-2.764.808-11.797 2.391-27.602l.177-1.756.813-8.048zm-4.666 39.868c-.604 4.998-2.558 15.943-5.855 32.785C5.787 141.651 1.628 118.369.392 95.151l18.333 37.064zm1.192-.955l29.05-23.792c-5.667 19.017-17.31 38.079-34.927 57.184 3.485-17.82 5.44-28.932 5.877-33.392zm6.942-74.402c-1.395 7.38-2.568 15.252-3.187 21.772-.215 2.261-.504 5.17-.948 9.57l-.358 3.54L4.179 55.08c2.613-7.8 6.451-15.48 11.515-23.04L26.86 56.858zm1.274-.9l22.873-17.944a430.532 430.532 0 0 1 1.797 28.853l-29.262 24 .26-2.56c.444-4.402.733-7.312.948-9.576.646-6.812 1.903-15.118 3.384-22.773zm7.384-29.232l-3.655 9.942c-1.517 4.125-3.184 10.898-4.647 18.346L16.406 30.989c3.843-5.603 8.361-11.14 13.555-16.612l5.556 12.35zm.807.937l12.246-9.607a395.19 395.19 0 0 1 2.311 18.686l-22.43 17.595c1.41-7.044 2.99-13.39 4.427-17.3l3.446-9.374zM45.342 0L36.05 25.277l-5.283-11.743C35.155 8.977 40.014 4.465 45.342 0zm.466 1.863a373.066 373.066 0 0 1 2.578 14.967l-11.354 8.908 8.776-23.875z"/>
        <path id="e" d="M42.95 11.9a4.98 4.98 0 0 0-.234 1.514c0 2.778 2.276 5.03 5.083 5.03.23 0 .458-.015.68-.044 2.934 3.777 5.331 7.502 7.191 11.176a34.947 34.947 0 0 1-3.211 2.875c-5.366 4.274-9.46 8.48-12.285 12.616 9.692-2.456 16.082-4.415 19.17-5.879.776 3.044 1.163 6.05 1.163 9.02C60.507 70.851 36.546 83 30.431 83 25.58 83 9.496 74.692 3.056 60.476c3.812.72 8.652 2.22 14.52 4.499-2.444-5.024-6.207-8.716-11.29-11.074a58.205 58.205 0 0 0-5.731-2.292c-.131-1.11-.2-2.244-.2-3.402 0-7.426 2.668-15.297 8.004-23.614 2.346 1.587 4.217 3.07 5.614 4.451 2.728 2.697 4.93 6.27 6.606 10.72-.978-11.348-2.953-19.254-5.927-23.719C18.945 10.858 24.205 5.51 30.431 0c4.731 4.021 8.904 7.988 12.519 11.9z"/>
    </defs>
    <g fill="none" fill-rule="evenodd">
        <g transform="rotate(31 -153.141 344.798)">
            <mask id="b" fill="#fff">
                <use xlink:href="#a"/>
            </mask>
            <use fill="#FBACA7" xlink:href="#a"/>
            <path fill="#FF8486" fill-opacity=".4" fill-rule="nonzero" d="M7.981-9.094C7.925-2.928 11.297-.176 18.096-.839c6.8-.663 15.691-4.753 26.677-12.27l-6.89 25.3c-2.704-3.298-7.02-2.592-12.947 2.119-5.926 4.71-19.17 14.522-39.729 29.435L7.981-9.094zM-5.804 70.641C5.956 51.243 15.235 41.212 22.034 40.55c6.799-.663 9.784-.342 8.955.962l-6.89 25.299c-2.705-3.298-7.02-2.591-12.947 2.12C5.225 73.64-.426 78.907-5.803 84.733V70.641z" mask="url(#b)"/>
        </g>
        <path stroke="#F8837F" stroke-linecap="round" d="M121.203 185.552c10.718-.707 17.56-3.392 20.523-8.056 4.446-6.996 18.718-25.864 25.29-27.415"/>
        <g transform="translate(100 29)">
            <mask id="d" fill="#fff">
                <use xlink:href="#c"/>
            </mask>
            <use fill="#FC9C9A" xlink:href="#c"/>
            <path fill="#FF8486" fill-opacity=".4" fill-rule="nonzero" d="M-.933 65.727c.228 1.604 5.25 12.343 19.564 11.584 14.314-.76 20.967-1.593 27.54-8.02C50.552 65.009 57.705 58.578 67.627 50l-3.09 35.777c10.115 7.668 6.184 10.788-11.794 9.359-26.966-2.144-48.199-1.55-50.937 3.429-2.74 4.979-2.967-34.442-2.74-32.838zM-17.933 132.406c.228 1.571 5.25 12.09 19.564 11.347 14.314-.743 20.967-1.56 27.54-7.855 4.381-4.197 11.534-10.496 21.456-18.898l-3.09 35.047c10.115 7.511 6.184 10.567-11.794 9.167-26.966-2.1-48.199-1.517-50.937 3.36-2.74 4.877-2.967-33.74-2.74-32.168z" mask="url(#d)"/>
        </g>
        <path d="M0 0h240v240H0z"/>
        <circle cx="108.5" cy="185.5" r="2.5" fill="#FFF" fill-opacity=".2"/>
        <g transform="rotate(-30 249.887 -7.043)">
            <circle cx="71.554" cy="53.066" r="1.5" fill="#FFF" fill-opacity=".2"/>
            <circle cx="54.537" cy="30.539" r="1.5" fill="#FFF" fill-opacity=".2"/>
            <circle cx="13.426" cy="84.746" r="1" fill="#FFF" fill-opacity=".2"/>
            <g transform="translate(.046 .592)">
                <mask id="f" fill="#fff">
                    <use xlink:href="#e"/>
                </mask>
                <use fill="#FBACA7" xlink:href="#e"/>
                <path fill="#FF8486" fill-opacity=".4" fill-rule="nonzero" d="M-3.76 49.884C1.443 53.158 9.556 55.864 20.58 58c16.535 3.206 23.83-2.46 31.879-7.697 5.366-3.49 11.296-7.508 17.791-12.053l-.423 30.846H49.494c-16.249 0-20.628-.598-31.919 2.586C6.285 74.866.582 80.635-3.76 74.866c-2.894-3.847-2.894-12.174 0-24.982zM6.285 10.747c5.366 10.24 12.709 13.913 22.028 11.021C37.633 18.877 48.528 11.621 61 0l-2.754 21.768c-6.04-.329-13.528 2.336-22.462 7.995C26.85 35.42 13.672 40.172-3.747 44.015L6.285 10.747z" mask="url(#f)"/>
            </g>
            <path stroke="#F8837F" stroke-linecap="round" d="M29.93 8.247c1.107 40.646 1.107 65.12 0 73.423-1.106 8.304-4.496 17.83-10.17 28.577"/>
            <path stroke="#F8837F" stroke-linecap="round" d="M9.26 45.65l22.165 22 12.836-13.346M45.247 24.182l-14.447 17-7.553-9.81M25.355 11.923l4.743 7 5.257-7"/>
            <circle cx="44.831" cy="65.35" r="2.5" fill="#FFF" fill-opacity=".2"/>
            <circle cx="50.197" cy="58.056" r="1.5" fill="#FFF" fill-opacity=".2"/>
            <circle cx="10.592" cy="38.654" r="1.5" fill="#FFF" fill-opacity=".2"/>
            <circle cx="11.311" cy="30.409" r="1" fill="#FFF" fill-opacity=".2"/>
        </g>
        <circle cx="88.5" cy="165.5" r="3.5" fill="#FFF" fill-opacity=".2"/>
        <circle cx="156" cy="174" r="1" fill="#FFF" fill-opacity=".2"/>
        <circle cx="151" cy="177" r="2" fill="#FFF" fill-opacity=".2"/>
        <circle cx="150" cy="46" r="1" fill="#FFF" fill-opacity=".2"/>
        <path fill="#FD9292" fill-rule="nonzero" d="M94 183h53a2 2 0 0 1 2 2v41a2 2 0 0 1-2 2H94a2 2 0 0 1-2-2v-41a2 2 0 0 1 2-2z"/>
        <path fill="#F57A73" fill-opacity=".6" d="M94 183h53a2 2 0 0 1 2 2v1a2 2 0 0 1-2 2H94a2 2 0 0 1-2-2v-1a2 2 0 0 1 2-2zM94 191h53a2 2 0 0 1 2 2v1a2 2 0 0 1-2 2H94a2 2 0 0 1-2-2v-1a2 2 0 0 1 2-2z"/>
        <circle cx="165" cy="113" r="2" fill="#FFF" fill-opacity=".2"/>
        <circle cx="162.5" cy="102.5" r="1.5" fill="#FFF" fill-opacity=".2"/>
        <circle cx="154.5" cy="163.5" r="1.5" fill="#FFF" fill-opacity=".2"/>
        <circle cx="130" cy="207" r="4" fill="#FFF" fill-opacity=".2"/>
        <circle cx="144" cy="222" r="2" fill="#FFF" fill-opacity=".2"/>
        <circle cx="137.5" cy="201.5" r="1.5" fill="#FFF" fill-opacity=".2"/>
        <circle cx="97" cy="189" r="1" fill="#FFF" fill-opacity=".2"/>
        <path fill="#FBACA7" d="M189.214 226c4.05 0 7.05-.667 9-2-1.95-2.667-4.95-4-9-4s-8.383 1.333-13 4c4.617 1.333 8.95 2 13 2z"/>
        <path stroke="#F8837F" stroke-linecap="round" d="M163 225c4.996.667 8.624.667 10.884 0 3.39-1 7.541-2 13.33-2h6.942"/>
        <path fill="#FFEBEB" d="M47 227h152a1 1 0 1 1 0 2H47a1 1 0 1 1 0-2zm159.526 0h2a1 1 0 1 1 0 2h-2a1 1 0 1 1 0-2zM9 227h28a1 1 0 1 1 0 2H9a1 1 0 1 1 0-2zm207 0h12a1 1 0 1 1 0 2h-12a1 1 0 1 1 0-2z"/>
        <rect width="66" height="2" x="116" y="234" fill="#FFEBEB" rx="1"/>
        <circle cx="67.5" cy="52.5" r="1.5" fill="#FFF" fill-opacity=".2"/>
    </g>
</svg>
