<svg xmlns="http://www.w3.org/2000/svg" xmlns:xlink="http://www.w3.org/1999/xlink" width="242" height="240" viewBox="0 0 242 240">
    <defs>
        <path id="a" d="M6.795 35.567c1.618-.757 3.794-1.07 6.528-.94-1.663-.738-2.903-1.643-3.72-2.713-.404-.53-.69-1.215-.856-2.055 4.58-11.999 11.5-21.75 20.758-29.256-2.228 6.65-3.343 13.412-3.343 20.29-.259 6.4 2.3 13.18 5.543 21.039-.865 3.686-1.9 5.955-3.107 6.805 2.238-1.169 2.655-.223 4.452-3.563 3.73 8.982 7.943 19.38 9.795 32.123-1.738 3.038-4.797 5.46-9.177 7.267 1.641 1.851 8.068 1.645 9.904-.539.152 2.133.233 4.327.233 6.586 0 33.916-18.468 61.26-27.174 73.803-4.468-6.195-19.098-19.482-15.935-37.681 3.163-18.2 4.506-21.53 4.506-26.287 0-2.284-.691-7.882-1.41-14.503.39-1.055 1.12-2.2 2.19-3.434 1.907-2.202 4.354-3.902 7.34-5.1-2.442-.462-4.458-.21-6.05.756-.958.583-2.292 1.513-4 2.79-.582-5.857-1.068-12.04-1.068-17.199.503-10.383 2.034-19.78 4.591-28.19z"/>
        <path id="c" d="M80.873 49.397c-.484 1.535-1.383 3.147-2.698 4.837-3.24 4.163-5.472 6.84-6.699 8.03 7.608-.401 12.683-1.784 15.224-4.149 15.171 24.794 24.188 58.02 25.149 108.066-24.003-47.25-60.636-47.137-81.326-72.61a135.918 135.918 0 0 1-5.026-6.585 38.98 38.98 0 0 1 6.397-6.195c-4.82 0-8.567-.355-11.24-1.065a130.093 130.093 0 0 1-13.13-28.254c3.925 1.232 8.764.652 14.518-1.738-7.432.754-12.589.32-15.47-1.3-2.081-6.912-3.64-14.091-4.679-21.536 2.448.393 5.735-.04 9.863-1.3-2.688-.028-4.772-.393-6.253-1.094-1.261-.597-2.697-1.73-4.306-3.396C.532 14.566.257 7.826.368.888c6.572.557 12.937 1.696 19.096 3.417a17.981 17.981 0 0 1 1.567 3.259c.674 1.885 1.011 3.35 1.011 4.395a119.303 119.303 0 0 0 1.59-4.395c.173-.511.281-1.14.326-1.888.697.231 1.392.47 2.084.717a6.992 6.992 0 0 0-.105 1.22c0 2.152.941 3.897 2.103 3.897 1.1 0 2.001-1.564 2.094-3.556 4.178 1.7 8.253 3.69 12.225 5.972.466 2.222.571 3.883.315 4.982-.362 1.558-1.36 3.477-2.991 5.756 2.885.333 5.403-.735 7.552-3.204.812-.931 1.466-2.015 1.963-3.25 9.801 6.666 18.937 15.213 27.406 25.64a132.512 132.512 0 0 1 4.269 5.547z"/>
        <path id="e" d="M15.121 3.77c-.04.226-.061.466-.061.716 0 1.26.55 2.283 1.229 2.283.642 0 1.17-.916 1.224-2.084a58.912 58.912 0 0 1 7.146 3.499c.273 1.302.334 2.275.185 2.919-.212.912-.795 2.036-1.75 3.372 1.687.194 3.16-.431 4.416-1.877a6.653 6.653 0 0 0 1.147-1.905c5.73 3.906 11.07 8.913 16.02 15.022 12.41 15.311 28.854 36.045 18.466 83.294-8.536-31.471-33.308-39.244-45.403-54.166a79.607 79.607 0 0 1-2.937-3.859 22.81 22.81 0 0 1 3.739-3.628c-2.818 0-5.008-.209-6.57-.625A76.289 76.289 0 0 1 4.297 30.18c2.293.721 5.122.382 8.486-1.018-4.345.44-7.36.187-9.044-.762a84.077 84.077 0 0 1-2.734-12.617c1.43.23 3.352-.023 5.765-.761-1.571-.017-2.79-.23-3.655-.641-.737-.35-1.577-1.013-2.517-1.99C.209 8.56.048 4.611.113.546c3.842.326 7.562.993 11.163 2.001.382.634.688 1.27.916 1.91.394 1.104.591 1.962.591 2.574.348-.912.658-1.77.93-2.574.1-.3.164-.668.19-1.106.407.135.814.275 1.218.42z"/>
        <path id="g" d="M2 0h72a2 2 0 0 1 2 2v42a2 2 0 0 1-2 2H2a2 2 0 0 1-2-2V2a2 2 0 0 1 2-2z"/>
        <ellipse id="i" cx="9" cy="16.472" rx="9" ry="16"/>
        <ellipse id="j" cx="9" cy="16.472" rx="9" ry="16"/>
    </defs>
    <g fill="none" fill-rule="evenodd">
        <path d="M0 0h240v240H0z"/>
        <g transform="translate(108.102 6.721)">
            <mask id="b" fill="#fff">
                <use xlink:href="#a"/>
            </mask>
            <use fill="#FBACA7" xlink:href="#a"/>
            <path fill="#FF8486" fill-opacity=".4" fill-rule="nonzero" d="M28.546 0l1.919 1.207c-8.65 13.862-12.961 27.036-12.961 39.527 0 7.648 1.033 13.2 3.95 24.128l.179.668c1.55 5.801 2.224 8.545 2.884 12.055.872 4.639 1.322 9.043 1.322 13.645 0 1.45-.08 2.923-.239 4.437-.318 3.052-.94 6.22-1.909 9.998a191.648 191.648 0 0 1-1.4 5.112c-.23.8-1.25 4.325-1.522 5.281-2.419 8.467-3.73 14.302-4.463 21.028-.944 8.648-.636 17.475 1.178 27.117l-2.225.422c-1.856-9.866-2.172-18.919-1.204-27.786.75-6.88 2.086-12.827 4.537-21.407.275-.962 1.295-4.487 1.522-5.282.572-2 1.002-3.562 1.384-5.052.944-3.678 1.545-6.741 1.85-9.668a40.38 40.38 0 0 0 .226-4.2c0-4.453-.436-8.718-1.282-13.223-.646-3.437-1.311-6.14-2.847-11.888l-.178-.668c-2.965-11.109-4.028-16.818-4.028-24.717 0-12.951 4.445-26.531 13.307-40.734z" mask="url(#b)"/>
            <path fill="#FF8486" fill-opacity=".4" fill-rule="nonzero" d="M.252 60.646c3.858-5.024 9.141-7.127 15.849-6.31 6.707.818 14.32.818 22.84 0l-7.308-19.832c-4.73 5.136-8.742 5.136-12.037 0s-8.6-9.225-15.916-12.267L-4 29.579.252 60.646zM2.316 89.475c.553-4.089 4.666-4.64 12.338-1.653 11.508 4.481 12.822 12.446 20.986 12.446 5.443 0 11.375-2.39 17.796-7.168l-9.631 24.45c-2.085 2.184-5.547 2.73-10.385 1.638-7.258-1.637-13.532-4.78-22.318-3.209-5.858 1.048-10.24 2.538-13.145 4.47l4.359-30.974z" mask="url(#b)"/>
            <ellipse cx="36.676" cy="68.204" fill="#FFF" fill-opacity=".2" mask="url(#b)" rx="1.941" ry="1.948"/>
            <ellipse cx="14.517" cy="23.227" fill="#FFF" fill-opacity=".2" mask="url(#b)" rx="1.456" ry="1.461"/>
            <ellipse cx="15.164" cy="19.006" fill="#FFF" fill-opacity=".2" mask="url(#b)" rx="1" ry="1"/>
            <ellipse cx="36.837" cy="61.547" fill="#FFF" fill-opacity=".2" mask="url(#b)" rx="1" ry="1"/>
            <ellipse cx="40.072" cy="71.289" fill="#FFF" fill-opacity=".2" mask="url(#b)" rx="1" ry="1"/>
        </g>
        <g transform="translate(18.05 31.766)">
            <mask id="d" fill="#fff">
                <use xlink:href="#c"/>
            </mask>
            <use fill="#FBACA7" xlink:href="#c"/>
            <path fill="#FF8486" fill-opacity=".4" fill-rule="nonzero" d="M-.839 1.97L1.575-.192C15.26 15.208 26.651 28.505 35.747 39.7c5.1 6.276 10.2 13.203 16.393 22.114 2.645 3.807 11.502 16.78 12.996 18.944 4.912 7.108 8.657 12.284 12.21 16.782 7.593 9.613 14.984 17.97 22.924 26.231a502.581 502.581 0 0 0 4.323 4.44c.891.904 3.652 3.693 3.583 3.624 2.61 2.643 3.836 3.933 4.656 4.948l-2.512 2.046c-.724-.896-1.917-2.153-4.44-4.707.07.071-2.693-2.72-3.587-3.629a505.768 505.768 0 0 1-4.35-4.467c-8.01-8.332-15.469-16.766-23.132-26.469-3.604-4.562-7.385-9.788-12.333-16.949-1.503-2.174-10.355-15.142-12.992-18.936-6.15-8.85-11.205-15.717-16.245-21.92C24.177 30.598 12.817 17.336-.84 1.97z" mask="url(#d)"/>
            <path fill="#FF8486" fill-opacity=".4" fill-rule="nonzero" d="M26.422 93.523c5.102-8.685 11.304-13.028 18.608-13.028 10.954 0 38.718-2.165 42.912-8.89 2.796-4.485 5.373-10.986 7.729-19.505l15.954 33.445c15.078 32.462 18.394 49.923 9.947 52.384-12.67 3.69-16.609-6.432-28.402.901-7.862 4.889-22.832-1.759-44.91-19.942L26.421 93.523z" mask="url(#d)"/>
            <circle cx="89.5" cy="86.5" r="2.5" fill="#FFF" fill-opacity=".2" mask="url(#d)"/>
            <circle cx="36.951" cy="84.234" r="1" fill="#FFF" fill-opacity=".2" mask="url(#d)"/>
            <circle cx="88.451" cy="78.734" r="1.5" fill="#FFF" fill-opacity=".2" mask="url(#d)"/>
            <path fill="#FF8486" fill-opacity=".4" fill-rule="nonzero" d="M44.885-7c4.99 4.9 4.99 10.607 0 17.122-7.484 9.773-23.423 23.71-29.925 23.71-4.335 0-12.321-.749-23.96-2.245l8.163 19.504c7.01-1.545 15.737-2.297 26.18-2.256 15.665.06 28.425-2.04 34.312-8.521 3.925-4.322 7.865-12.235 11.821-23.742L44.886-7z" mask="url(#d)"/>
            <ellipse cx="9.115" cy="37.165" fill="#FFF" fill-opacity=".2" mask="url(#d)" rx="1.941" ry="1.948"/>
            <ellipse cx="14.453" cy="7.776" fill="#FFF" fill-opacity=".2" mask="url(#d)" rx="1" ry="1"/>
            <ellipse cx="12.189" cy="5.827" fill="#FFF" fill-opacity=".2" mask="url(#d)" rx="1.456" ry="1.461"/>
            <ellipse cx="12.512" cy="40.25" fill="#FFF" fill-opacity=".2" mask="url(#d)" rx="1.132" ry="1.137"/>
        </g>
        <g transform="translate(125.352 88.937)">
            <mask id="f" fill="#fff">
                <use xlink:href="#e"/>
            </mask>
            <use fill="#FC9C9A" transform="matrix(-1 0 0 1 66.531 0)" xlink:href="#e"/>
            <path fill="#FF8486" fill-opacity=".4" fill-rule="nonzero" d="M.764 1.164L2.172-.103c7.984 9.029 14.629 16.825 19.936 23.39 2.975 3.68 5.95 7.74 9.563 12.965 1.544 2.232 6.71 9.839 7.582 11.107 2.866 4.168 5.05 7.202 7.123 9.84 4.43 5.636 8.742 10.535 13.375 15.379.817.855 1.625 1.687 2.522 2.603l2.09 2.125c1.523 1.55 2.238 2.306 2.716 2.9l-1.465 1.2c-.423-.525-1.119-1.262-2.591-2.76.041.043-1.57-1.594-2.092-2.127-.902-.92-1.715-1.758-2.538-2.62-4.673-4.884-9.024-9.83-13.496-15.518-2.102-2.675-4.308-5.739-7.194-9.937-.877-1.275-6.042-8.878-7.58-11.102-3.588-5.19-6.537-9.216-9.477-12.852C15.358 17.95 8.73 10.174.764 1.164z" mask="url(#f)" transform="matrix(-1 0 0 1 67.843 0)"/>
            <path fill="#FF8486" fill-opacity=".4" fill-rule="nonzero" d="M-7 54.652c2.98-5.08 6.602-7.62 10.867-7.62 6.398 0 22.614-1.267 25.063-5.201 1.633-2.623 3.138-6.426 4.514-11.409l9.318 19.563c8.806 18.988 10.743 29.202 5.81 30.641-7.4 2.16-27.806-23.198-34.694-18.909-4.592 2.86-7.3 5.45-8.124 7.772L-7 54.652z" mask="url(#f)" transform="matrix(-1 0 0 1 44.228 0)"/>
            <path fill="#FF8486" fill-opacity=".4" fill-rule="nonzero" d="M56.433-4c2.908 2.876 2.908 6.226 0 10.05-4.362 5.737-13.652 13.917-17.442 13.917-2.527 0-7.182-.44-13.965-1.318l4.757 11.449c4.086-.907 9.173-1.349 15.26-1.325 9.13.036 16.568-1.197 19.999-5.001 2.287-2.537 4.584-7.182 6.89-13.936L56.433-4z" mask="url(#f)" transform="matrix(-1 0 0 1 96.957 0)"/>
            <ellipse cx="61.418" cy="21.817" fill="#FFF" fill-opacity=".2" mask="url(#f)" rx="1.132" ry="1.137" transform="matrix(-1 0 0 1 122.836 0)"/>
            <ellipse cx="58.183" cy="4.606" fill="#FFF" fill-opacity=".2" mask="url(#f)" rx="1" ry="1" transform="matrix(-1 0 0 1 116.367 0)"/>
            <ellipse cx="59.477" cy="3.307" fill="#FFF" fill-opacity=".2" mask="url(#f)" rx="1" ry="1" transform="matrix(-1 0 0 1 118.955 0)"/>
            <ellipse cx="59.316" cy="23.603" fill="#FFF" fill-opacity=".2" mask="url(#f)" rx="1" ry="1" transform="matrix(-1 0 0 1 118.631 0)"/>
        </g>
        <g transform="translate(88 181)">
            <mask id="h" fill="#fff">
                <use xlink:href="#g"/>
            </mask>
            <use fill="#FD9292" fill-rule="nonzero" xlink:href="#g"/>
            <path fill="#F57A73" fill-opacity=".3" d="M76 7.958V44a2 2 0 0 1-2 2H2a2 2 0 0 1-2-2V30.419A68.923 68.923 0 0 0 22 34c21.867 0 41.358-10.172 54-26.042zM0 0h76v6H0z" mask="url(#h)"/>
            <path fill="#F57A73" fill-opacity=".6" d="M0 8h76V6H0zM0 46h76v-2H0z" mask="url(#h)"/>
            <path fill="#F57A73" fill-opacity=".3" d="M14.5 25a2.5 2.5 0 0 1 2.5 2.5V47h-5V27.5a2.5 2.5 0 0 1 2.5-2.5zM14.5 17a2.5 2.5 0 0 1 2.5 2.5v1a2.5 2.5 0 1 1-5 0v-1a2.5 2.5 0 0 1 2.5-2.5z" mask="url(#h)"/>
            <circle cx="60.5" cy="15.5" r="2.5" fill="#FFF" fill-opacity=".2" mask="url(#h)"/>
            <circle cx="70.5" cy="4.5" r="1.5" fill="#FFF" fill-opacity=".2" mask="url(#h)"/>
        </g>
        <g>
            <g transform="translate(165.045 173.528)">
                <g transform="translate(9.955)">
                    <use fill="#FBACA7" xlink:href="#i"/>
                    <mask id="k" fill="#fff">
                        <use xlink:href="#j"/>
                    </mask>
                    <use fill="#FFEBEB" fill-opacity=".6" xlink:href="#j"/>
                    <path fill="#FF8486" fill-opacity=".1" fill-rule="nonzero" d="M8.21-2l1.762.945C7.328 3.879 6.294 9.939 6.885 17.143c.567 6.91 1.885 10.449 3.47 10.69l-.3 1.977c-2.957-.45-4.518-4.642-5.163-12.503C4.27 9.74 5.37 3.298 8.209-2z" mask="url(#k)"/>
                    <path fill="#FF8486" fill-opacity=".1" fill-rule="nonzero" d="M13.21-2l1.762.945c-2.644 4.934-3.678 10.994-3.087 18.198.567 6.91 1.885 10.449 3.47 10.69l-.3 1.977c-2.957-.45-4.518-4.642-5.163-12.503C9.27 9.74 10.37 3.298 13.209-2z" mask="url(#k)" transform="matrix(-1 0 0 1 25.08 0)"/>
                </g>
                <ellipse cx="28.058" cy="12.15" fill="#FBACA7" rx="4.5" ry="8" transform="rotate(30 28.058 12.15)"/>
                <ellipse cx="9.5" cy="22.512" fill="#FBACA7" rx="8.5" ry="6" transform="rotate(70 9.5 22.512)"/>
                <g fill="#FFF" fill-rule="nonzero">
                    <path d="M10.601 13.826a.5.5 0 0 1 .707-.707l1 1a.5.5 0 1 1-.707.707l-1-1zM12.84 7.268a.5.5 0 0 1 .796-.605l.847 1.116a.5.5 0 1 1-.796.605l-.847-1.116zM21.486 8.33a.5.5 0 0 1-.867-.497l1.254-2.185a.5.5 0 0 1 .867.498L21.486 8.33zM21.54 17.584a.5.5 0 0 1-.975-.223l.686-3a.5.5 0 0 1 .975.223l-.686 3zM28.302 14.332a.5.5 0 1 1-.694-.72l1.557-1.5a.5.5 0 1 1 .693.72l-1.556 1.5zM28.315 7.489a.5.5 0 1 1-.942.336l-.779-2.185a.5.5 0 1 1 .942-.336l.779 2.185zM11.455 20.472a.5.5 0 1 1-1 0v-1.5a.5.5 0 0 1 1 0v1.5zM6.802 20.3a.5.5 0 0 1-.535.845L3.517 19.4a.5.5 0 1 1 .536-.845l2.75 1.744zM13.72 24.602a.5.5 0 1 1-.965-.26l.848-3.144a.5.5 0 1 1 .965.26l-.848 3.144zM24.41 24.678a.5.5 0 0 1-.911-.412l1.356-3a.5.5 0 0 1 .911.412l-1.356 3z"/>
                </g>
            </g>
            <g transform="translate(151 202)">
                <path fill="#FFEBEB" d="M0 25C3.576 10.64 16.557 0 32.024 0 47.49 0 60.472 10.64 64.047 25H0z"/>
                <path fill="#FD9292" fill-opacity=".1" fill-rule="nonzero" d="M.701 22.585A114.4 114.4 0 0 0 10.5 23c20.876 0 38.607-5.529 44.978-13.214A32.952 32.952 0 0 1 64.048 25H0c.204-.818.438-1.623.701-2.415z"/>
                <ellipse cx="45" cy="9" fill="#FD9292" fill-opacity=".3" fill-rule="nonzero" rx="2" ry="1"/>
                <ellipse cx="40.5" cy="6.5" fill="#FD9292" fill-opacity=".3" fill-rule="nonzero" rx="1.5" ry="1"/>
            </g>
        </g>
        <rect width="66" height="2" x="64" y="234" fill="#FFEBEB" rx="1"/>
        <path fill="#FFEBEB" d="M52 234h4.921a1 1 0 1 1 0 2H52a1 1 0 1 1 0-2zM139 234h84a1 1 0 1 1 0 2h-84a1 1 0 1 1 0-2zM49 227h170a1 1 0 1 1 0 2H49a1 1 0 1 1 0-2zm180 0h4a1 1 0 1 1 0 2h-4a1 1 0 1 1 0-2zm-218 0h28a1 1 0 1 1 0 2H11a1 1 0 1 1 0-2z"/>
    </g>
</svg>
